<svg width="558" height="85" viewBox="0 0 558 85" fill="none" xmlns="http://www.w3.org/2000/svg">
<path d="M254.211 57.9045C254.715 57.8596 276.675 37.4031 278.948 35.3555C281.209 36.9924 285.222 40.8261 287.369 42.8079C292.678 47.7066 298.402 52.9592 303.441 58.1456C304.82 56.8371 306.573 55.567 308.113 54.3422C329.946 36.9869 362.048 23.073 389.317 35.9616C393.268 37.8299 396.898 42.1886 394.367 46.6964C391.856 47.7474 389.669 42.6609 387.116 42.2649C381.4 41.3776 379.848 47.4056 382.513 51.6385C383.489 53.2257 385.086 54.3324 386.914 54.6923C391.807 55.6193 397.254 51.1477 397.687 46.3738C398.785 34.1588 381.7 30.0228 372.427 29.2087C346.69 26.9499 323 39.6891 303.64 55.4238L280.474 33.8293C284.518 30.9024 293.52 22.7135 297.711 19.1664C314.213 18.9752 331.146 19.1623 347.68 19.1616L446.996 19.1563L487.908 19.1626C495.49 19.1734 503.257 19.271 510.828 19.0508C513.109 18.8024 516.61 18.7052 518.284 16.9446C520.959 14.1274 520.541 9.50502 517.51 7.09262C516.098 5.9803 514.302 5.47937 512.52 5.70162C509.796 6.02873 507.794 8.04226 508.254 10.8751C508.708 13.6718 510.587 14.836 512.656 16.4583C506.783 17.4267 495.752 17.0923 489.356 17.0867L450.592 17.0756L311.468 17.0711C306.7 17.0495 301.809 16.9652 297.056 17.1804C291.099 21.6332 284.972 27.6368 278.983 32.415C273.9 28.5917 266.108 21.5036 261.069 17.232C255.044 16.8694 247.391 17.0631 241.264 17.062L207.212 17.061L100.856 17.0798L67.262 17.0871C60.3059 17.0864 52.0304 17.3891 45.28 16.5029C46.8752 15.223 50.0634 12.8427 50.0408 10.7128C49.9595 3.03004 37.7215 4.73074 37.9416 12.1498C37.8809 15.4874 39.852 18.1691 43.3507 18.5798C52.4172 19.6444 62.3346 19.1835 71.4847 19.1619L113.704 19.1511L260.226 19.186C265.961 23.6972 272.017 29.0954 277.466 33.9481C269.637 40.9076 261.973 48.0501 254.48 55.3688C243.318 46.8183 232.658 39.3498 219.317 34.4006C203.784 28.6384 185.938 26.1943 170.3 32.9748C166.256 34.7277 162.282 37.4254 160.764 41.6831C157.908 49.0934 166.156 57.6864 173.452 53.7841C175.61 52.63 176.275 50.5015 176.874 48.2278C174.56 34.9932 166.884 46.7068 164.02 47.0705C163.177 46.4734 163.088 46.2616 162.928 45.1503C161.495 35.2147 178.75 31.8217 185.479 31.2284C211.157 28.9651 235.15 41.8367 254.211 57.9045Z" fill="#532C3D" style="fill:#532C3D;fill:color(display-p3 0.3255 0.1725 0.2392);fill-opacity:1;"/>
<path d="M265.282 77.8746C270.875 75.7036 277.49 60.6994 279.249 54.6985C281.027 63.419 286.659 71.9716 292.921 78.1815C293.819 76.8055 294.639 75.6026 295.734 74.3666C297.203 72.7084 299.728 70.9412 300.818 69.1231L300.597 68.5358C297.979 67.7129 297.496 69.1565 292.694 67.4649C285.476 64.0008 281.382 56.223 280.646 48.658C280.572 47.9017 280.21 45.3032 279.789 44.7821L279.194 44.8953C276.983 47.0234 277.294 54.0293 275.555 57.1851C270.917 65.5987 265.953 69.7909 256.244 67.6743C258.749 71.2342 262.017 73.2637 265.282 77.8746Z" fill="#532C3D" style="fill:#532C3D;fill:color(display-p3 0.3255 0.1725 0.2392);fill-opacity:1;"/>
</svg>
