<svg width="558" height="85" viewBox="0 0 558 85" fill="none" xmlns="http://www.w3.org/2000/svg">
<path d="M254.211 27.0955C254.715 27.1404 276.675 47.5969 278.948 49.6445C281.209 48.0076 285.222 44.1739 287.369 42.1921C292.678 37.2934 298.402 32.0408 303.441 26.8544C304.82 28.1629 306.573 29.433 308.113 30.6578C329.946 48.0131 362.048 61.927 389.317 49.0384C393.268 47.1701 396.898 42.8114 394.367 38.3036C391.856 37.2526 389.669 42.3391 387.116 42.7351C381.4 43.6224 379.848 37.5944 382.513 33.3615C383.489 31.7743 385.086 30.6676 386.914 30.3077C391.807 29.3807 397.254 33.8523 397.687 38.6262C398.785 50.8412 381.7 54.9772 372.427 55.7913C346.69 58.0501 323 45.3109 303.64 29.5762L280.474 51.1707C284.518 54.0976 293.52 62.2865 297.711 65.8336C314.213 66.0248 331.146 65.8377 347.68 65.8384L446.996 65.8437L487.908 65.8374C495.49 65.8266 503.257 65.729 510.828 65.9492C513.109 66.1976 516.61 66.2948 518.284 68.0554C520.959 70.8726 520.541 75.495 517.51 77.9074C516.098 79.0197 514.302 79.5206 512.52 79.2984C509.796 78.9713 507.794 76.9577 508.254 74.1249C508.708 71.3282 510.587 70.164 512.656 68.5417C506.783 67.5733 495.752 67.9077 489.356 67.9133L450.592 67.9244L311.468 67.9289C306.7 67.9505 301.809 68.0348 297.056 67.8196C291.099 63.3668 284.972 57.3632 278.983 52.585C273.9 56.4083 266.108 63.4964 261.069 67.768C255.044 68.1306 247.391 67.9369 241.264 67.938L207.212 67.939L100.856 67.9202L67.262 67.9129C60.3059 67.9136 52.0304 67.6109 45.28 68.4971C46.8752 69.777 50.0634 72.1573 50.0408 74.2872C49.9595 81.97 37.7215 80.2693 37.9416 72.8502C37.8809 69.5126 39.852 66.8309 43.3507 66.4202C52.4172 65.3556 62.3346 65.8165 71.4847 65.8381L113.704 65.8489L260.226 65.814C265.961 61.3028 272.017 55.9046 277.466 51.0519C269.637 44.0924 261.973 36.9499 254.48 29.6312C243.318 38.1817 232.658 45.6502 219.317 50.5994C203.784 56.3616 185.938 58.8057 170.3 52.0252C166.256 50.2723 162.282 47.5746 160.764 43.3169C157.908 35.9066 166.156 27.3136 173.452 31.2159C175.61 32.37 176.275 34.4985 176.874 36.7722C174.56 50.0068 166.884 38.2932 164.02 37.9295C163.177 38.5266 163.088 38.7384 162.928 39.8497C161.495 49.7853 178.75 53.1783 185.479 53.7716C211.157 56.0349 235.15 43.1633 254.211 27.0955Z" fill="#532C3D" style="fill:#532C3D;fill:color(display-p3 0.3255 0.1725 0.2392);fill-opacity:1;"/>
<path d="M265.282 7.12537C270.875 9.29635 277.49 24.3006 279.249 30.3014C281.027 21.5809 286.659 13.0283 292.921 6.81847C293.819 8.19449 294.639 9.39738 295.734 10.6334C297.203 12.2916 299.728 14.0588 300.818 15.8769L300.597 16.4642C297.979 17.2871 297.496 15.8434 292.694 17.5351C285.476 20.9992 281.382 28.777 280.646 36.342C280.572 37.0983 280.21 39.6967 279.789 40.2179L279.194 40.1047C276.983 37.9765 277.294 30.9706 275.555 27.8148C270.917 19.4012 265.953 15.2091 256.244 17.3257C258.749 13.7658 262.017 11.7363 265.282 7.12537Z" fill="#532C3D" style="fill:#532C3D;fill:color(display-p3 0.3255 0.1725 0.2392);fill-opacity:1;"/>
</svg>
