<svg width="83" height="83" viewBox="0 0 83 83" fill="none" xmlns="http://www.w3.org/2000/svg">
<path fill-rule="evenodd" clip-rule="evenodd" d="M15.948 5.93745C15.1416 5.75693 12.901 6.2743 12.0691 6.57612C5.23647 9.05481 4.81377 18.1155 6.91087 23.9443C8.46401 28.2601 11.7366 31.1867 15.8757 33.0585C12.8893 32.9408 9.49866 32.8505 6.49095 32.8447C6.38305 33.6368 6.38091 35.9109 6.37572 36.7792H6.43822C9.37315 36.7735 12.3397 36.907 15.2751 36.9599C21.7818 37.0771 28.6314 37.4215 34.531 40.4501C36.5029 41.4625 38.5001 42.819 39.8533 44.6005C44.6721 50.9437 45.7271 59.3751 45.7536 67.1201C45.7564 67.9406 45.7535 68.76 45.7536 69.58L45.7527 76.6699H49.6951C49.6967 73.5703 49.7531 70.3003 49.6833 67.2148C49.8447 67.6406 50.0221 68.0598 50.2156 68.4716C52.0023 72.2751 55.232 75.2093 59.1892 76.624C62.7565 77.8809 67.8972 78.1388 71.3777 76.4648C73.6248 75.3837 75.2076 73.5813 76.0085 71.2226C76.8694 68.6212 76.7596 65.4571 75.5827 62.9755C74.1016 59.8521 69.9641 59.1612 67.0359 60.6054C67.1163 60.9912 67.1846 61.379 67.24 61.7695C67.6462 64.7165 66.3087 66.4572 63.2839 65.9374C61.9923 65.7154 61.3765 65.4737 60.3406 64.665C58.8977 63.3344 58.1035 61.3333 58.7038 59.4374C59.7949 55.9932 64.0021 56.2374 66.6951 57.0439C66.7356 56.8802 66.7745 56.716 66.8113 56.5517C67.4509 53.6114 66.9523 50.1486 64.4285 48.2177C63.1774 47.2606 61.9724 46.8736 60.4714 46.5546C60.5521 46.4238 60.6357 46.2948 60.7224 46.1679C61.5169 44.9755 62.7606 44.1558 64.1697 43.8955C66.3102 43.4963 69.151 44.3934 70.9275 45.5976C71.4384 44.8077 71.8662 43.9668 72.2019 43.0878C72.995 41.0573 73.399 38.5508 72.4783 36.499C71.4641 34.2394 69.5462 33.3152 67.3904 32.4999C72.1827 30.5442 73.54 26.6217 73.1902 21.8369C72.9358 18.3581 72.7823 13.9323 73.2693 10.4921C69.0991 11.1265 64.8196 10.7388 60.6384 10.4218C56.3118 10.0938 52.674 12.1233 50.9587 16.1367C50.774 15.3356 50.4619 14.645 50.1003 13.9335C48.2758 10.3446 44.6533 9.66325 41.0788 10.8525C39.8974 11.2456 39.084 11.6426 37.9734 12.2373C39.0903 14.1425 40.0645 16.9494 39.5154 19.1279C39.0725 20.8837 38.258 21.7774 36.7995 22.7148L36.7742 22.5996C36.2732 20.3186 35.6096 18.5021 33.5076 17.124C31.5553 15.8442 28.6789 15.753 26.4353 16.2529C27.0599 18.3893 27.2583 21.4808 25.574 23.1669C23.375 25.3684 19.6526 24.2591 18.2136 21.7607C17.5341 20.5805 17.1819 18.8153 17.5398 17.499C18.1918 15.1023 21.0264 15.3401 22.8923 15.8505C24.1135 13.4016 24.0251 10.4061 22.1218 8.26264C20.6848 6.64522 18.0622 6.02205 15.948 5.93745ZM15.8894 8.48335C19.0766 8.69022 20.7824 10.3989 21.8806 13.3349C18.4885 13.1687 13.5021 13.3302 13.2868 17.871C13.1589 20.5834 14.54 23.4103 16.3503 25.4003C19.0182 28.3337 24.1361 29.9267 27.3689 26.9335C30.03 24.4699 29.6707 20.3178 28.946 17.0634C32.2543 17.654 35.2068 19.4712 34.5681 23.2939C34.3076 24.8527 33.1518 26.071 31.8972 26.9326C31.1676 27.4279 30.3825 27.8362 29.5583 28.1503C32.3752 28.4716 35.9542 28.2191 38.1882 26.3173C41.601 23.4118 43.1655 16.9833 41.0906 13.0087C42.9115 12.5393 44.791 12.5207 46.4538 13.5078C50.0608 15.6491 50.4444 20.6286 48.4294 23.9873C47.8283 25.0108 46.9903 25.875 45.9861 26.5078C48.4065 26.0781 50.0739 25.5455 51.6404 23.4189C52.3092 22.5109 52.686 21.2579 53.0652 20.1874C54.1932 17.003 55.448 14.3005 59.1394 13.6191C60.8343 13.3063 61.8265 13.4867 63.4753 13.4716C65.7507 13.4508 68.9742 13.3288 71.1775 12.831C70.6764 15.0316 70.4443 16.6152 70.2527 18.9033C69.9193 22.8833 70.8435 26.6885 66.9402 29.2255C63.8315 31.2461 60.431 30.7406 58.1374 33.7607C57.498 34.6121 57.0463 35.5891 56.8122 36.6279C56.7327 36.9723 56.6729 37.3902 56.6179 37.7431C59.6736 32.8836 68.6699 32.9672 70.1628 39.2363C70.4494 40.4397 70.2604 41.8663 69.8992 43.0439C68.352 42.2412 66.965 41.9165 65.2292 41.9677C61.6049 42.0749 57.2488 43.6336 55.5056 47.0419C54.3644 49.2733 54.2365 51.6496 54.3982 54.0869C55.3658 52.1172 56.6738 49.9168 58.9704 49.329C62.5488 48.5349 64.6415 50.9645 65.323 54.2167L65.491 55.0537C62.5421 54.3737 59.3934 53.8452 56.6374 55.5478C55.2237 56.4214 54.2816 57.8323 53.9314 59.4482C52.8834 64.8136 57.1343 69.5066 62.2283 70.4326C64.0476 70.763 66.0571 70.9174 67.6736 69.8359C70.1764 68.1614 70.3487 64.8604 70.1589 62.165C71.622 62.7807 73.0317 63.6688 73.5515 65.1943C74.8174 68.9101 72.5927 73.2683 68.9363 74.5605C65.6381 75.796 61.9138 75.3877 58.7146 74.0214C54.9121 72.3978 52.64 69.2217 51.2322 65.4111C48.0542 56.8081 48.0377 46.825 51.7654 38.414C53.6703 34.0403 56.3101 30.025 59.5701 26.5419C60.8203 25.207 62.3344 23.9067 63.4831 22.4628C63.9407 21.8877 64.982 19.4113 63.4763 19.4374C61.3038 19.4753 59.3408 22.0054 57.7761 23.4169C56.7384 24.3595 55.6548 25.2504 54.529 26.0859C52.3856 27.6759 50.0882 29.0471 47.6716 30.1796C41.1539 33.2959 35.3379 34.2226 28.1433 33.5117C24.8567 33.1499 21.6803 32.4746 18.6033 31.2226C14.8335 29.6888 11.8902 27.7658 10.2634 23.9374C8.00913 18.6321 7.98011 8.62453 15.8894 8.48335Z" fill="black" style="fill:black;fill-opacity:1;"/>
<path d="M18.8265 42.041C18.1967 41.9942 17.3932 42.0266 16.7494 42.014C13.6712 41.954 10.6245 42.3714 7.57169 42.5452L7.57636 45.5005C8.23206 45.5106 9.76963 45.3353 10.4575 45.275C11.8311 45.1558 13.2074 45.0639 14.5847 44.9994C20.2001 44.7014 28.3264 45.3512 32.6825 49.2662C37.0437 53.1858 38.8146 61.7385 39.1084 67.4245C39.1344 68.3416 39.237 69.2961 39.2636 70.2283C39.3238 72.3355 39.2397 74.3197 39.1562 76.4175C39.963 76.3459 40.8283 76.3781 41.6508 76.3366C41.7327 75.8578 41.7905 75.2477 41.8043 74.7596C41.8446 73.3305 41.9901 71.7742 41.9694 70.357C41.8629 63.0618 40.7276 53.7969 35.7287 48.1425C31.6423 43.5201 24.6541 42.3223 18.8265 42.041Z" fill="black" style="fill:black;fill-opacity:1;"/>
</svg>
