<svg width="60" height="60" viewBox="0 0 60 60" fill="none" xmlns="http://www.w3.org/2000/svg">
<path fill-rule="evenodd" clip-rule="evenodd" d="M48.4712 4.29158C49.0541 4.16115 50.6733 4.5353 51.2749 4.75349C56.2144 6.54526 56.5195 13.0955 55.0035 17.3092C53.8807 20.429 51.516 22.5449 48.524 23.898C50.6827 23.8129 53.1331 23.748 55.3072 23.7437C55.3851 24.3167 55.3874 25.9599 55.3912 26.5875H55.3453C53.2237 26.5834 51.0795 26.6801 48.9576 26.7183C44.2539 26.803 39.3024 27.0514 35.0376 29.2408C33.6122 29.9726 32.1682 30.9539 31.19 32.2418C27.7068 36.827 26.9446 42.9216 26.9253 48.5201C26.9233 49.1133 26.9244 49.7065 26.9244 50.2994L26.9253 55.4244H24.0757C24.0745 53.1838 24.0341 50.8199 24.0845 48.5894C23.9679 48.8972 23.8395 49.2 23.6998 49.4976C22.4081 52.2471 20.0731 54.3686 17.2124 55.3912C14.6337 56.2997 10.9178 56.486 8.4019 55.276C6.77757 54.4945 5.6333 53.1918 5.05424 51.4869C4.43189 49.6063 4.51099 47.318 5.36186 45.524C6.43267 43.2663 9.42387 42.7671 11.5406 43.8111C11.4824 44.0901 11.4331 44.3706 11.3931 44.6529C11.0995 46.7832 12.0659 48.0414 14.2525 47.6656C15.1862 47.5051 15.6315 47.3303 16.3804 46.7457C17.4234 45.7838 17.9971 44.3368 17.563 42.9664C16.7741 40.477 13.7332 40.6539 11.7867 41.2369C11.7573 41.1184 11.7293 40.9993 11.7027 40.8804C11.2404 38.755 11.601 36.2528 13.4253 34.857C14.3298 34.1651 15.2006 33.8845 16.2857 33.6539C16.2274 33.5593 16.1667 33.4663 16.104 33.3746C15.5297 32.5126 14.6304 31.9192 13.6119 31.731C12.0645 31.4427 10.0111 32.092 8.7271 32.9625C8.35776 32.3915 8.04889 31.7833 7.8062 31.148C7.23286 29.6802 6.94055 27.8685 7.606 26.3853C8.33913 24.7518 9.72614 24.0831 11.2847 23.4937C7.82019 22.08 6.83846 19.2447 7.09135 15.7857C7.27525 13.2709 7.38676 10.0714 7.03471 7.58455C10.0492 8.04304 13.1422 7.76292 16.1646 7.53377C19.2924 7.29662 21.9227 8.76423 23.1626 11.6656C23.2962 11.0863 23.5213 10.5863 23.7828 10.0719C25.1017 7.47763 27.7204 6.98563 30.3042 7.84529C31.1584 8.12951 31.7464 8.41635 32.5494 8.84627C31.7419 10.2236 31.038 12.2528 31.4351 13.8277C31.7552 15.097 32.3436 15.7428 33.398 16.4205L33.4165 16.3375C33.7787 14.6885 34.2581 13.3748 35.7779 12.3785C37.1892 11.4534 39.2684 11.3882 40.8902 11.7496C40.4387 13.294 40.2947 15.5288 41.5123 16.7476C43.1018 18.3391 45.7932 17.537 46.8335 15.731C47.3248 14.8779 47.5795 13.6016 47.3208 12.65C46.8495 10.9175 44.8006 11.0886 43.4517 11.4576C42.5691 9.68736 42.6326 7.52258 44.0083 5.97322C45.0471 4.80396 46.9428 4.35274 48.4712 4.29158ZM48.5132 6.1324C46.2093 6.28198 44.977 7.51785 44.1832 9.64021C46.6352 9.52009 50.2394 9.63619 50.3951 12.9185C50.4877 14.8794 49.489 16.9232 48.1802 18.3619C46.2516 20.4822 42.5523 21.6337 40.2154 19.4703C38.2916 17.6893 38.5519 14.6872 39.0757 12.3345C36.6843 12.7614 34.5499 14.0753 35.0113 16.8385C35.1996 17.9654 36.035 18.8465 36.9419 19.4693C37.4694 19.8274 38.0366 20.1231 38.6324 20.3502C36.5962 20.5824 34.0091 20.3996 32.3941 19.025C29.927 16.9246 28.7965 12.2771 30.2964 9.40388C28.9801 9.06447 27.6216 9.05089 26.4195 9.76424C23.8118 11.3121 23.5341 14.9124 24.9908 17.3404C25.4254 18.0804 26.0313 18.7053 26.7574 19.1627C25.0075 18.852 23.802 18.4667 22.6695 16.9293C22.186 16.2728 21.9134 15.3672 21.6392 14.5933C20.8237 12.2913 19.9171 10.3379 17.2486 9.84529C16.0234 9.61916 15.3057 9.74976 14.1138 9.73884C12.469 9.72376 10.1391 9.63581 8.54643 9.27595C8.9086 10.8665 9.07683 12.0109 9.21538 13.6646C9.45639 16.5418 8.78809 19.2925 11.6099 21.1265C13.8571 22.5871 16.3152 22.2219 17.9732 24.4049C18.4354 25.0204 18.762 25.7272 18.9312 26.4781C18.9887 26.7272 19.0311 27.0296 19.0708 27.2847C16.862 23.7717 10.359 23.8319 9.27983 28.3638C9.07274 29.2336 9.20922 30.2646 9.47026 31.1158C10.5887 30.5355 11.5914 30.3014 12.8462 30.3385C15.4663 30.4159 18.6154 31.5425 19.8755 34.0064C20.7005 35.6195 20.7932 37.3374 20.6763 39.0992C19.9768 37.6754 19.0309 36.0846 17.3707 35.6597C14.7839 35.0857 13.2715 36.842 12.7789 39.1929L12.6568 39.7984C14.7887 39.3068 17.0647 38.9248 19.0572 40.1558C20.0792 40.7873 20.7601 41.807 21.0132 42.9752C21.7705 46.8536 18.6983 50.2462 15.0162 50.9156C13.701 51.1545 12.2482 51.2656 11.0796 50.484C9.27047 49.2736 9.1456 46.8875 9.28276 44.939C8.22513 45.3842 7.20533 46.0257 6.82963 47.1285C5.91461 49.8146 7.52334 52.9649 10.1665 53.899C12.5507 54.7921 15.2426 54.4969 17.5552 53.5094C20.3041 52.3356 21.9467 50.0395 22.9644 47.2847C25.2617 41.0658 25.2733 33.8493 22.5787 27.7691C21.2016 24.6075 19.2936 21.7048 16.9371 19.1871C16.0333 18.2221 14.9393 17.2816 14.1089 16.2379C13.7782 15.822 13.0253 14.0324 14.1138 14.0513C15.6842 14.0789 17.1029 15.908 18.2339 16.9283C18.9841 17.6097 19.7678 18.2531 20.5816 18.857C22.1311 20.0064 23.7917 20.9982 25.5386 21.817C30.2501 24.0696 34.4541 24.74 39.6548 24.2261C42.0308 23.9646 44.3269 23.475 46.5513 22.5699C49.2764 21.4611 51.4046 20.0717 52.5806 17.3043C54.2102 13.469 54.2311 6.23421 48.5132 6.1324Z" fill="black" style="fill:black;fill-opacity:1;"/>
<path d="M46.3905 30.3912C46.8458 30.3573 47.4267 30.3807 47.892 30.3717C50.1173 30.3283 52.3197 30.63 54.5265 30.7557L54.5232 32.892C54.0492 32.8993 52.9377 32.7726 52.4404 32.729C51.4474 32.6428 50.4525 32.5764 49.4569 32.5298C45.3975 32.3144 39.5232 32.784 36.3742 35.6142C33.2215 38.4477 31.9413 44.6303 31.7289 48.7407C31.7101 49.4037 31.636 50.0937 31.6167 50.7675C31.5732 52.2908 31.634 53.7252 31.6944 55.2417C31.1112 55.1899 30.4856 55.2132 29.8911 55.1832C29.8318 54.837 29.79 54.396 29.7801 54.0432C29.751 53.01 29.6457 51.885 29.6607 50.8605C29.7377 45.5869 30.5584 38.8894 34.1721 34.8019C37.1261 31.4604 42.1778 30.5945 46.3905 30.3912Z" fill="black" style="fill:black;fill-opacity:1;"/>
</svg>
