<svg width="83" height="83" viewBox="0 0 83 83" fill="none" xmlns="http://www.w3.org/2000/svg">
<path fill-rule="evenodd" clip-rule="evenodd" d="M15.9489 77.0632C15.1427 77.2439 12.9011 76.7264 12.069 76.4245C5.23608 73.9459 4.81446 64.8842 6.91176 59.0554C8.4649 54.7396 11.7365 51.813 15.8756 49.9411C12.8892 50.0589 9.49857 50.1492 6.49086 50.155C6.383 49.3627 6.38081 47.0887 6.37563 46.2204L6.4391 46.2214C9.37406 46.2271 12.3405 46.0926 15.276 46.0398C21.7825 45.9226 28.6315 45.579 34.5309 42.5505C36.5029 41.5381 38.5 40.1807 39.8532 38.3992C44.672 32.056 45.727 23.6245 45.7536 15.8796C45.7564 15.0591 45.7535 14.2396 45.7536 13.4197L45.7526 6.32982H49.695C49.6966 9.42931 49.753 12.6994 49.6832 15.7849C49.8446 15.3591 50.0221 14.9399 50.2155 14.5281C52.0023 10.7246 55.2319 7.79034 59.1891 6.37572C62.7564 5.1188 67.8971 4.8609 71.3776 6.5349C73.6247 7.61594 75.2075 9.41843 76.0084 11.7771C76.8694 14.3786 76.7597 17.5434 75.5827 20.0251C74.1014 23.1483 69.9639 23.8394 67.0358 22.3952C67.1162 22.0093 67.1845 21.6208 67.2399 21.2302C67.646 18.2833 66.3086 16.5425 63.2838 17.0622C61.9922 17.2843 61.3764 17.526 60.3405 18.3347C58.8976 19.6652 58.1036 21.6664 58.7038 23.5622C59.7948 27.0067 64.0031 26.7625 66.6959 25.9558C66.7365 26.1195 66.7744 26.2838 66.8112 26.448C67.4508 29.3883 66.9522 32.8511 64.4284 34.782C63.1772 35.7391 61.9724 36.1261 60.4713 36.4451C60.552 36.5761 60.6355 36.7057 60.7223 36.8327C61.5168 38.025 62.7606 38.8449 64.1696 39.1052C66.3102 39.5043 69.1509 38.6063 70.9274 37.4021C71.4383 38.192 71.8661 39.033 72.2018 39.9118C72.995 41.9424 73.3989 44.4489 72.4782 46.5007C71.4641 48.7604 69.5462 49.6844 67.3903 50.4997C72.1829 52.4555 73.54 56.3787 73.1901 61.1638C72.9357 64.6424 72.7823 69.0675 73.2692 72.5076C69.099 71.8732 64.8195 72.2618 60.6383 72.5788C56.3117 72.9068 52.6739 70.8765 50.9586 66.863C50.7739 67.6643 50.462 68.3555 50.1002 69.0671C48.2757 72.6559 44.6532 73.3374 41.0788 72.1482C39.8971 71.755 39.084 71.3572 37.9733 70.7624C39.0902 68.8571 40.0646 66.0504 39.5153 63.8718C39.0724 62.1159 38.258 61.2223 36.7995 60.2849L36.7741 60.4001C36.2731 62.6811 35.6095 64.4976 33.5075 65.8757C31.5552 67.1555 28.6788 67.2467 26.4352 66.7468C27.0597 64.6104 27.259 61.5189 25.5748 59.8327C23.3759 57.6312 19.6525 58.7406 18.2135 61.239C17.534 62.4191 17.1819 64.1844 17.5397 65.5007C18.1918 67.8974 21.0263 67.6606 22.8922 67.1501C24.1131 69.599 24.0249 72.5938 22.1217 74.737C20.6848 76.3544 18.0631 76.9785 15.9489 77.0632ZM15.8903 74.5163C19.0772 74.3093 20.7824 72.6006 21.8805 69.6648C18.4885 69.831 13.5033 69.6702 13.2877 65.1296C13.1596 62.4173 14.5399 59.5904 16.3502 57.6003C19.018 54.667 24.1359 53.0732 27.3688 56.0661C30.03 58.5299 29.6706 62.6828 28.9459 65.9372C32.2543 65.3467 35.2067 63.5286 34.568 59.7058C34.3074 58.1471 33.1516 56.9296 31.8971 56.0681C31.1674 55.5727 30.3825 55.1636 29.5582 54.8493C32.375 54.5281 35.954 54.7807 38.1881 56.6824C41.6009 59.5879 43.1654 66.0164 41.0905 69.991C42.9115 70.4604 44.7908 70.479 46.4538 69.4919C50.0607 67.3506 50.4443 62.3711 48.4293 59.0124C47.8282 57.9889 46.9902 57.1246 45.986 56.4919C48.4066 56.9217 50.0737 57.455 51.6403 59.5818C52.309 60.4899 52.6859 61.7428 53.0651 62.8132C54.1931 65.9975 55.4481 68.6992 59.1393 69.3806C60.8341 69.6934 61.8265 69.513 63.4752 69.5281C65.7506 69.5489 68.974 69.6708 71.1774 70.1687C70.6763 67.9681 70.4443 66.3845 70.2526 64.0964C69.9193 60.1164 70.8435 56.3112 66.9401 53.7742C63.8315 51.7537 60.4309 52.2596 58.1373 49.24C57.4979 48.3885 57.0462 47.4107 56.8121 46.3718C56.7326 46.0273 56.6728 45.6095 56.6178 45.2566C59.6734 50.1162 68.6699 50.0326 70.1627 43.7634C70.4493 42.56 70.2603 41.1333 69.8991 39.9558C68.352 40.7584 66.9657 41.0841 65.2301 41.0329C61.6057 40.9259 57.2487 39.3663 55.5055 35.9577C54.3644 33.7264 54.2364 31.35 54.3981 28.9128C55.3657 30.8824 56.6738 33.0828 58.9704 33.6706C62.5487 34.4648 64.6414 32.0351 65.3229 28.7829L65.4918 27.946C62.5428 28.6261 59.3935 29.1547 56.6373 27.4519C55.2235 26.5783 54.2814 25.1674 53.9313 23.5515C52.8835 18.1861 57.1343 13.4931 62.2282 12.5671C64.0475 12.2367 66.057 12.0824 67.6735 13.1638C70.1762 14.8383 70.3486 18.1393 70.1588 20.8347C71.6219 20.2189 73.0317 19.331 73.5514 17.8054C74.8172 14.0896 72.5926 9.73139 68.9362 8.43919C65.638 7.20374 61.9137 7.61291 58.7145 8.97923C54.912 10.6029 52.6399 13.7789 51.2321 17.5896C48.0542 26.1924 48.0378 36.1749 51.7653 44.5857C53.6701 48.9594 56.3101 52.9747 59.57 56.4577C60.8201 57.7926 62.3343 59.0931 63.483 60.5368C63.9406 61.112 64.982 63.5885 63.4762 63.5622C61.3037 63.5244 59.3407 60.9943 57.776 59.5827C56.7383 58.6402 55.6547 57.7492 54.5289 56.9138C52.3855 55.3238 50.088 53.9526 47.6715 52.8201C41.154 49.7039 35.3386 48.7772 28.1442 49.488C24.8574 49.8498 21.6804 50.526 18.6032 51.7781C14.8336 53.3118 11.8901 55.234 10.2633 59.0622C8.00893 64.3676 7.98048 74.3755 15.8903 74.5163Z" fill="black" style="fill:black;fill-opacity:1;"/>
<path d="M18.8265 40.9589C18.1967 41.0057 17.3932 40.9733 16.7494 40.9858C13.6712 41.0459 10.6245 40.6285 7.57169 40.4546L7.57636 37.4994C8.23206 37.4893 9.76963 37.6646 10.4575 37.7249C11.8311 37.8441 13.2074 37.936 14.5847 38.0004C20.2001 38.2985 28.3264 37.6487 32.6825 33.7337C37.0437 29.814 38.8146 21.2614 39.1084 15.5754C39.1344 14.6582 39.237 13.7037 39.2636 12.7716C39.3238 10.6644 39.2397 8.68017 39.1562 6.58235C39.963 6.65393 40.8283 6.62177 41.6508 6.66327C41.7327 7.14207 41.7905 7.75213 41.8043 8.24027C41.8446 9.66943 41.9901 11.2257 41.9694 12.6429C41.8629 19.9381 40.7276 29.203 35.7287 34.8574C31.6423 39.4798 24.6541 40.6776 18.8265 40.9589Z" fill="black" style="fill:black;fill-opacity:1;"/>
</svg>
