<svg width="83" height="83" viewBox="0 0 83 83" fill="none" xmlns="http://www.w3.org/2000/svg">
<path fill-rule="evenodd" clip-rule="evenodd" d="M67.0518 5.93697C67.8582 5.75642 70.0987 6.27381 70.9307 6.57564C77.7637 9.05428 78.1863 18.116 76.089 23.9448C74.5358 28.2605 71.2641 31.1872 67.1251 33.059C70.1114 32.9413 73.5013 32.851 76.5089 32.8452C76.6167 33.6375 76.6189 35.9103 76.6241 36.7788H76.5616C73.6266 36.7731 70.6602 36.9075 67.7247 36.9604C61.218 37.0776 54.3684 37.421 48.4688 40.4497C46.4969 41.4621 44.4997 42.8195 43.1466 44.601C38.328 50.944 37.2738 59.3749 37.2472 67.1196C37.2444 67.9403 37.2463 68.7604 37.2462 69.5805L37.2472 76.6704L33.3048 76.6694C33.3031 73.5701 33.2478 70.3006 33.3175 67.2153C33.1561 67.6411 32.9777 68.0603 32.7843 68.4721C30.9974 72.2754 27.7677 75.2099 23.8106 76.6245C20.2433 77.8813 15.1025 78.1392 11.6222 76.4653C9.37509 75.3843 7.79226 73.5817 6.99129 71.2231C6.13038 68.6216 6.24101 65.4568 7.41805 62.9751C8.89936 59.8519 13.0359 59.1608 15.9639 60.6049C15.8835 60.9909 15.8152 61.3794 15.7598 61.77C15.3538 64.7167 16.6913 66.4576 19.7159 65.9379C21.0076 65.7159 21.6233 65.4742 22.6593 64.6655C24.1024 63.3349 24.8965 61.333 24.296 59.437C23.2048 55.9929 18.9976 56.2378 16.3048 57.0444C16.2642 56.8805 16.2253 56.7157 16.1886 56.5512C15.549 53.6111 16.0477 50.1491 18.5714 48.2182C19.8226 47.261 21.0282 46.8741 22.5294 46.5551C22.4486 46.424 22.3643 46.2946 22.2774 46.1674C21.4829 44.9752 20.2391 44.1553 18.8302 43.895C16.6895 43.4959 13.8487 44.3938 12.0723 45.5981C11.5614 44.8082 11.1346 43.9663 10.7989 43.0874C10.0058 41.0569 9.60102 38.5511 10.5216 36.4995C11.5357 34.2397 13.4544 33.3158 15.6104 32.5004C10.8177 30.5447 9.4597 26.6215 9.80965 21.8364C10.064 18.3576 10.2185 13.9318 9.73153 10.4917C13.9016 11.1259 18.1803 10.7383 22.3614 10.4213C26.6882 10.0933 30.3258 12.1236 32.0411 16.1372C32.2258 15.3359 32.5378 14.6447 32.8995 13.9331C34.724 10.3441 38.3465 9.66278 41.921 10.852C43.1027 11.2452 43.9157 11.643 45.0264 12.2378C43.9096 14.1431 42.9351 16.9499 43.4845 19.1284C43.9273 20.8843 44.7426 21.7778 46.2013 22.7153L46.2257 22.6001C46.7267 20.319 47.39 18.5016 49.4923 17.1235C51.4445 15.8437 54.3209 15.7535 56.5645 16.2534C55.94 18.3898 55.7415 21.4814 57.4259 23.1674C59.6249 25.3687 63.3482 24.2595 64.7872 21.7612C65.4667 20.581 65.8189 18.8148 65.461 17.4985C64.8089 15.1022 61.9744 15.3397 60.1085 15.8501C58.8873 13.4011 58.9747 10.4066 60.878 8.26314C62.315 6.64546 64.9374 6.02158 67.0518 5.93697ZM67.1104 8.48385C63.9232 8.69072 62.2174 10.3994 61.1192 13.3354C64.5113 13.1692 69.4976 13.3298 69.713 17.8706C69.8411 20.583 68.4599 23.4097 66.6495 25.3999C63.9816 28.3333 58.8638 29.9266 55.6309 26.9331C52.9698 24.4693 53.3301 20.3174 54.0548 17.0629C50.7465 17.6535 47.7933 19.4709 48.4317 23.2934C48.6922 24.8523 49.848 26.0706 51.1026 26.9321C51.8323 27.4275 52.6172 27.8366 53.4415 28.1508C50.6246 28.4721 47.0456 28.2188 44.8116 26.3169C41.3989 23.4112 39.8353 16.9837 41.9102 13.0092C40.0893 12.5397 38.2099 12.5204 36.547 13.5073C32.9398 15.6484 32.5556 20.628 34.5704 23.9868C35.1715 25.0104 36.0094 25.8755 37.0138 26.5083C34.5933 26.0785 32.926 25.5451 31.3595 23.4184C30.6907 22.5103 30.3139 21.2574 29.9347 20.187C28.8066 17.0026 27.5518 14.3009 23.8604 13.6196C22.1656 13.3068 21.1733 13.4862 19.5245 13.4711C17.2493 13.4503 14.0266 13.3293 11.8233 12.8315C12.3243 15.0318 12.5565 16.615 12.7481 18.9028C13.0815 22.883 12.157 26.688 16.0606 29.2251C19.1693 31.2455 22.5698 30.7401 24.8634 33.7602C25.5028 34.6117 25.9546 35.5895 26.1886 36.6284C26.268 36.9729 26.3269 37.3908 26.3819 37.7436C23.3263 32.884 14.3299 32.9676 12.837 39.2368C12.5506 40.4399 12.7396 41.8661 13.1007 43.0434C14.6478 42.2407 16.0348 41.916 17.7706 41.9672C21.395 42.0743 25.7511 43.634 27.4942 47.0424C28.6353 49.2738 28.7633 51.6502 28.6016 54.0874C27.634 52.1177 26.3261 49.9163 24.0294 49.3286C20.4512 48.5345 18.3584 50.9643 17.6768 54.2163L17.5089 55.0542C20.458 54.3741 23.6072 53.8453 26.3634 55.5483C27.777 56.4219 28.7183 57.8329 29.0684 59.4487C30.1161 64.8138 25.8662 69.5069 20.7725 70.4331C18.9531 70.7635 16.9428 70.9179 15.3263 69.8364C12.8234 68.1619 12.6511 64.8599 12.8409 62.1645C11.3778 62.7803 9.96805 63.6692 9.44832 65.1948C8.18271 68.9105 10.4072 73.2678 14.0636 74.56C17.3618 75.7957 21.0859 75.3873 24.2852 74.021C28.0879 72.3973 30.3598 69.2213 31.7677 65.4106C34.9456 56.8077 34.962 46.8254 31.2345 38.4145C29.3296 34.0408 26.6897 30.0254 23.4298 26.5424C22.1795 25.2075 20.6654 23.9062 19.5167 22.4624C19.059 21.8865 18.0185 19.411 19.5235 19.437C21.696 19.4748 23.6591 22.0059 25.2237 23.4174C26.2613 24.3599 27.3452 25.2501 28.4708 26.0854C30.6142 27.6754 32.9116 29.0476 35.3282 30.1801C41.8459 33.2964 47.6619 34.2231 54.8565 33.5122C58.1432 33.1504 61.3194 32.4742 64.3966 31.2221C68.1663 29.6883 71.1096 27.7662 72.7364 23.9379C74.9909 18.6327 75.0201 8.62489 67.1104 8.48385Z" fill="black" style="fill:black;fill-opacity:1;"/>
<path d="M64.1735 42.041C64.8033 41.9942 65.6068 42.0266 66.2506 42.014C69.3288 41.954 72.3755 42.3714 75.4283 42.5452L75.4236 45.5005C74.7679 45.5106 73.2304 45.3353 72.5425 45.275C71.1689 45.1558 69.7926 45.0639 68.4153 44.9994C62.7999 44.7014 54.6736 45.3512 50.3175 49.2662C45.9563 53.1858 44.1854 61.7385 43.8916 67.4245C43.8656 68.3416 43.763 69.2961 43.7364 70.2283C43.6762 72.3355 43.7603 74.3197 43.8438 76.4175C43.037 76.3459 42.1717 76.3781 41.3492 76.3366C41.2673 75.8578 41.2095 75.2477 41.1957 74.7596C41.1554 73.3305 41.0099 71.7742 41.0306 70.357C41.1371 63.0618 42.2724 53.7969 47.2713 48.1425C51.3577 43.5201 58.3459 42.3223 64.1735 42.041Z" fill="black" style="fill:black;fill-opacity:1;"/>
</svg>
