<svg width="60" height="60" viewBox="0 0 60 60" fill="none" xmlns="http://www.w3.org/2000/svg">
<path fill-rule="evenodd" clip-rule="evenodd" d="M48.4714 55.7079C49.0544 55.8384 50.6737 55.4642 51.2751 55.246C56.2146 53.4542 56.5197 46.904 55.0036 42.6903C53.8809 39.5708 51.516 37.4556 48.5241 36.1025C50.6828 36.1876 53.1332 36.2525 55.3073 36.2568C55.3853 35.6842 55.3876 34.0409 55.3913 33.413H55.3454C53.2238 33.4171 51.0797 33.3204 48.9577 33.2821C44.2541 33.1974 39.3025 32.949 35.0378 30.7597C33.6123 30.0278 32.1684 29.0466 31.1901 27.7587C27.7067 23.1733 26.9447 17.0781 26.9255 11.4794C26.9235 10.8863 26.9246 10.2939 26.9245 9.70109L26.9255 4.57609H24.0759C24.0747 6.81671 24.0343 9.18055 24.0847 11.411C23.968 11.1032 23.8397 10.7996 23.6999 10.5019C22.4082 7.75251 20.0731 5.63188 17.2126 4.60929C14.634 3.70073 10.9181 3.51367 8.40206 4.72355C6.77756 5.50505 5.63242 6.80846 5.05342 8.51359C4.43112 10.3941 4.51127 12.6816 5.36202 14.4755C6.43268 16.7332 9.42301 17.2331 11.5398 16.1894C11.4816 15.9105 11.4333 15.6298 11.3933 15.3476C11.0996 13.2172 12.0661 11.9581 14.2526 12.3339C15.1864 12.4944 15.6317 12.6692 16.3806 13.2538C17.4237 14.2157 17.9972 15.6626 17.5632 17.0331C16.7745 19.5229 13.7335 19.3466 11.7868 18.7636C11.7575 18.8819 11.7294 19.0004 11.7028 19.1191C11.2405 21.2446 11.601 23.7476 13.4255 25.1435C14.3299 25.8354 15.2008 26.115 16.2858 26.3456C16.2275 26.4404 16.167 26.534 16.1042 26.6259C15.5299 27.4878 14.6306 28.0803 13.612 28.2685C12.0647 28.5569 10.0114 27.9084 8.72725 27.038C8.35788 27.609 8.04905 28.2171 7.80635 28.8525C7.233 30.3203 6.94055 32.1319 7.60616 33.6151C8.33921 35.2485 9.72553 35.9164 11.2839 36.5058C7.81949 37.9196 6.83854 40.7557 7.09151 44.2148C7.27541 46.7295 7.38691 49.9291 7.03487 52.4159C10.0493 51.9574 13.1423 52.2376 16.1648 52.4667C19.2925 52.7039 21.9218 51.2361 23.1618 48.3349C23.2953 48.9141 23.5215 49.4133 23.7829 49.9276C25.1018 52.5221 27.7204 53.0149 30.3044 52.1552C31.1586 51.871 31.7465 51.5832 32.5495 51.1532C31.7422 49.776 31.0383 47.7475 31.4353 46.1728C31.7554 44.9035 32.3438 44.2576 33.3981 43.58L33.4167 43.663C33.7789 45.3119 34.2584 46.6248 35.778 47.621C37.1893 48.5462 39.2685 48.6123 40.8903 48.2509C40.4389 46.7065 40.2949 44.4718 41.5124 43.2528C43.102 41.6613 45.7934 42.4634 46.8337 44.2694C47.3249 45.1226 47.5797 46.399 47.321 47.3505C46.8496 49.0828 44.8007 48.9109 43.4519 48.5419C42.5691 50.3122 42.6327 52.4768 44.0085 54.0263C45.0472 55.1957 46.9429 55.6468 48.4714 55.7079ZM48.5134 53.8671C46.2094 53.7175 44.9772 52.4826 44.1833 50.3603C46.6353 50.4804 50.2393 50.3639 50.3952 47.0819C50.4878 45.1211 49.4891 43.0772 48.1804 41.6386C46.2518 39.518 42.5516 38.3662 40.2146 40.5302C38.2912 42.3111 38.5511 45.3125 39.0749 47.665C36.6835 47.238 34.5498 45.9243 35.0114 43.161C35.1998 42.0342 36.0352 41.1539 36.9421 40.5312C37.4695 40.1731 38.0367 39.8774 38.6325 39.6503C36.5963 39.4181 34.0092 39.6008 32.3942 40.9755C29.9272 43.0759 28.7967 47.7224 30.2966 50.5956C28.9802 50.935 27.6218 50.9487 26.4196 50.2353C23.8119 48.6874 23.5343 45.0881 24.9909 42.6601C25.4255 41.92 26.0314 41.2952 26.7575 40.8378C25.0076 41.1485 23.8021 41.5337 22.6696 43.0712C22.1862 43.7277 21.9135 44.6333 21.6394 45.4071C20.8239 47.709 19.9171 49.6626 17.2487 50.1552C16.0235 50.3813 15.3059 50.2507 14.114 50.2616C12.4692 50.2767 10.1393 50.3647 8.54659 50.7245C8.90883 49.1337 9.07697 47.9889 9.21553 46.3349C9.45648 43.4577 8.78827 40.707 11.6101 38.873C13.8572 37.4126 16.3154 37.7778 17.9733 35.5946C18.4355 34.9792 18.7622 34.2723 18.9314 33.5214C18.9888 33.2725 19.0313 32.9707 19.071 32.7157C16.8621 36.2285 10.3593 36.1682 9.27999 31.6366C9.07284 30.7667 9.2093 29.735 9.47042 28.8837C10.5889 29.464 11.5916 29.6991 12.8464 29.662C15.4664 29.5846 18.6155 28.4578 19.8757 25.9941C20.7006 24.3811 20.7924 22.6631 20.6755 20.9013C19.976 22.325 19.0309 23.9159 17.3708 24.3407C14.7842 24.9148 13.2717 23.1584 12.779 20.8075L12.6569 20.2021C14.7888 20.6937 17.065 21.0756 19.0573 19.8446C20.0794 19.2131 20.7603 18.1934 21.0134 17.0253C21.7709 13.1468 18.6985 9.75441 15.0163 9.08488C13.701 8.846 12.2474 8.73367 11.0788 9.51554C9.26958 10.726 9.14571 13.113 9.28292 15.0614C8.22532 14.6164 7.20558 13.9747 6.82979 12.872C5.91471 10.1859 7.52348 7.03463 10.1667 6.1005C12.5508 5.20748 15.2428 5.50351 17.5554 6.49113C20.3041 7.66482 21.9468 9.96019 22.9646 12.7148C25.2619 18.9337 25.2734 26.1502 22.5788 32.2304C21.2018 35.3922 19.2938 38.2955 16.9372 40.8134C16.0336 41.7782 14.9394 42.7181 14.1091 43.7616C13.7783 44.1774 13.0254 45.9681 14.114 45.9491C15.6842 45.9215 17.1031 44.0925 18.2341 43.0722C18.9843 42.3908 19.7679 41.7464 20.5817 41.1425C22.1311 39.9932 23.792 39.0022 25.5388 38.1835C30.2503 35.9308 34.4541 35.2604 39.655 35.7743C42.0309 36.0358 44.3271 36.5245 46.5515 37.4296C49.2765 38.5383 51.4047 39.9279 52.5808 42.6952C54.2105 46.5304 54.2314 53.7653 48.5134 53.8671Z" fill="black" style="fill:black;fill-opacity:1;"/>
<path d="M46.3905 29.6091C46.8458 29.6429 47.4267 29.6195 47.892 29.6286C50.1173 29.672 52.3197 29.3702 54.5265 29.2446L54.5232 27.1082C54.0492 27.1009 52.9377 27.2276 52.4404 27.2713C51.4474 27.3574 50.4525 27.4239 49.4569 27.4705C45.3975 27.6859 39.5232 27.2162 36.3742 24.386C33.2215 21.5526 31.9413 15.37 31.7289 11.2596C31.7101 10.5966 31.636 9.90658 31.6167 9.23271C31.5732 7.70946 31.634 6.27508 31.6944 4.75858C31.1112 4.81033 30.4856 4.78708 29.8911 4.81708C29.8318 5.16321 29.79 5.60421 29.7801 5.95708C29.751 6.99021 29.6457 8.11521 29.6607 9.13971C29.7377 14.4133 30.5584 21.1108 34.1721 25.1984C37.1261 28.5398 42.1778 29.4057 46.3905 29.6091Z" fill="black" style="fill:black;fill-opacity:1;"/>
</svg>
