<svg width="60" height="60" viewBox="0 0 60 60" fill="none" xmlns="http://www.w3.org/2000/svg">
<path fill-rule="evenodd" clip-rule="evenodd" d="M11.5287 55.7079C10.9457 55.8384 9.32638 55.4642 8.72496 55.246C3.78546 53.4542 3.48032 46.904 4.99644 42.6903C6.1192 39.5708 8.48409 37.4556 11.4759 36.1025C9.31723 36.1876 6.86682 36.2525 4.69273 36.2568C4.61475 35.6842 4.6125 34.0409 4.60875 33.413H4.65465C6.77625 33.4171 8.92036 33.3204 11.0423 33.2821C15.7459 33.1974 20.6975 32.949 24.9623 30.7597C26.3878 30.0278 27.8317 29.0466 28.8099 27.7587C32.2934 23.1733 33.0554 17.0781 33.0746 11.4794C33.0766 10.8863 33.0755 10.2939 33.0755 9.70109L33.0746 4.57609H35.9242C35.9254 6.81671 35.9658 9.18055 35.9154 11.411C36.0321 11.1032 36.1603 10.7996 36.3002 10.5019C37.5918 7.75251 39.9269 5.63188 42.7875 4.60929C45.3661 3.70073 49.082 3.51367 51.598 4.72355C53.2225 5.50505 54.3676 6.80846 54.9466 8.51359C55.5689 10.3941 55.4888 12.6816 54.638 14.4755C53.5674 16.7332 50.577 17.2331 48.4603 16.1894C48.5185 15.9105 48.5668 15.6298 48.6068 15.3476C48.9004 13.2172 47.934 11.9581 45.7474 12.3339C44.8137 12.4944 44.3684 12.6692 43.6195 13.2538C42.5764 14.2157 42.0029 15.6626 42.4369 17.0331C43.2255 19.5229 46.2666 19.3466 48.2132 18.7636C48.2425 18.8819 48.2707 19.0004 48.2972 19.1191C48.7596 21.2446 48.3991 23.7476 46.5746 25.1435C45.6702 25.8354 44.7993 26.115 43.7142 26.3456C43.7726 26.4404 43.833 26.534 43.8959 26.6259C44.4702 27.4878 45.3695 28.0803 46.388 28.2685C47.9354 28.5569 49.9887 27.9084 51.2728 27.038C51.6422 27.609 51.951 28.2171 52.1937 28.8525C52.7671 30.3203 53.0595 32.1319 52.3939 33.6151C51.6609 35.2485 50.2745 35.9164 48.7162 36.5058C52.1806 37.9196 53.1615 40.7557 52.9086 44.2148C52.7247 46.7295 52.6131 49.9291 52.9652 52.4159C49.9507 51.9574 46.8578 52.2376 43.8353 52.4667C40.7076 52.7039 38.0783 51.2361 36.8382 48.3349C36.7047 48.9141 36.4786 49.4133 36.2171 49.9276C34.8982 52.5221 32.2796 53.0149 29.6957 52.1552C28.8415 51.871 28.2535 51.5832 27.4505 51.1532C28.2579 49.776 28.9618 47.7475 28.5648 46.1728C28.2447 44.9035 27.6562 44.2576 26.6019 43.58L26.5834 43.663C26.2212 45.3119 25.7417 46.6248 24.222 47.621C22.8108 48.5462 20.7316 48.6123 19.1097 48.2509C19.5612 46.7065 19.7051 44.4718 18.4877 43.2528C16.898 41.6613 14.2066 42.4634 13.1664 44.2694C12.6752 45.1226 12.4203 46.399 12.6791 47.3505C13.1505 49.0828 15.1994 48.9109 16.5482 48.5419C17.4309 50.3122 17.3674 52.4768 15.9916 54.0263C14.9528 55.1957 13.0572 55.6468 11.5287 55.7079ZM11.4867 53.8671C13.7906 53.7175 15.0229 52.4826 15.8168 50.3603C13.3648 50.4804 9.76077 50.3639 9.60484 47.0819C9.51222 45.1211 10.5109 43.0772 11.8197 41.6386C13.7483 39.518 17.4485 38.3662 19.7855 40.5302C21.7089 42.3111 21.4489 45.3125 20.9252 47.665C23.3165 47.238 25.4503 45.9243 24.9886 43.161C24.8003 42.0342 23.9649 41.1539 23.058 40.5312C22.5305 40.1731 21.9633 39.8774 21.3675 39.6503C23.4038 39.4181 25.9908 39.6008 27.6058 40.9755C30.0729 43.0759 31.2034 47.7224 29.7035 50.5956C31.0199 50.935 32.3783 50.9487 33.5804 50.2353C36.1881 48.6874 36.4658 45.0881 35.0091 42.6601C34.5746 41.92 33.9686 41.2952 33.2425 40.8378C34.9924 41.1485 36.1979 41.5337 37.3304 43.0712C37.8139 43.7277 38.0866 44.6333 38.3607 45.4071C39.1761 47.709 40.083 49.6626 42.7513 50.1552C43.9765 50.3813 44.6942 50.2507 45.8861 50.2616C47.5309 50.2767 49.8608 50.3647 51.4535 50.7245C51.0912 49.1337 50.9231 47.9889 50.7845 46.3349C50.5436 43.4577 51.2118 40.707 48.39 38.873C46.1428 37.4126 43.6847 37.7778 42.0267 35.5946C41.5645 34.9792 41.2379 34.2723 41.0687 33.5214C41.0113 33.2725 40.9688 32.9707 40.9291 32.7157C43.138 36.2285 49.6407 36.1682 50.7201 31.6366C50.9272 30.7667 50.7908 29.735 50.5296 28.8837C49.4112 29.464 48.4085 29.6991 47.1537 29.662C44.5337 29.5846 41.3845 28.4578 40.1244 25.9941C39.2994 24.3811 39.2077 22.6631 39.3246 20.9013C40.024 22.325 40.9692 23.9159 42.6293 24.3407C45.2159 24.9148 46.7283 23.1584 47.2211 20.8075L47.3431 20.2021C45.2113 20.6937 42.9351 21.0756 40.9427 19.8446C39.9207 19.2131 39.2398 18.1934 38.9867 17.0253C38.2292 13.1468 41.3015 9.75441 44.9837 9.08488C46.299 8.846 47.7527 8.73367 48.9212 9.51554C50.7305 10.726 50.8543 13.113 50.7171 15.0614C51.7747 14.6164 52.7945 13.9747 53.1703 12.872C54.0853 10.1859 52.4766 7.03463 49.8334 6.1005C47.4492 5.20748 44.7573 5.50351 42.4447 6.49113C39.6959 7.66482 38.0532 9.96019 37.0355 12.7148C34.7382 18.9337 34.7266 26.1502 37.4212 32.2304C38.7983 35.3922 40.7062 38.2955 43.0628 40.8134C43.9665 41.7782 45.0607 42.7181 45.891 43.7616C46.2217 44.1774 46.9746 45.9681 45.8861 45.9491C44.3158 45.9215 42.8969 44.0925 41.766 43.0722C41.0158 42.3908 40.2321 41.7464 39.4183 41.1425C37.8689 39.9932 36.2081 39.0022 34.4613 38.1835C29.7498 35.9308 25.5459 35.2604 20.3451 35.7743C17.9692 36.0358 15.673 36.5245 13.4486 37.4296C10.7235 38.5383 8.59531 39.9279 7.4193 42.6952C5.78955 46.5304 5.76868 53.7653 11.4867 53.8671Z" fill="black" style="fill:black;fill-opacity:1;"/>
<path d="M13.6095 29.6091C13.1543 29.6429 12.5734 29.6195 12.108 29.6286C9.88278 29.672 7.68041 29.3702 5.47353 29.2446L5.47691 27.1082C5.95091 27.1009 7.06241 27.2276 7.55966 27.2713C8.55266 27.3574 9.54753 27.4239 10.5432 27.4705C14.6025 27.6859 20.4769 27.2162 23.6259 24.386C26.7786 21.5526 28.0588 15.37 28.2712 11.2596C28.2899 10.5966 28.3641 9.90658 28.3833 9.23271C28.4269 7.70946 28.3661 6.27508 28.3057 4.75858C28.8889 4.81033 29.5144 4.78708 30.109 4.81708C30.1682 5.16321 30.21 5.60421 30.22 5.95708C30.2491 6.99021 30.3543 8.11521 30.3394 9.13971C30.2623 14.4133 29.4417 21.1108 25.828 25.1984C22.8739 28.5398 17.8223 29.4057 13.6095 29.6091Z" fill="black" style="fill:black;fill-opacity:1;"/>
</svg>
