<svg width="83" height="83" viewBox="0 0 83 83" fill="none" xmlns="http://www.w3.org/2000/svg">
<path fill-rule="evenodd" clip-rule="evenodd" d="M67.0519 5.93721C67.8583 5.75667 70.0988 6.27406 70.9308 6.57588C77.7638 9.05453 78.1863 18.1162 76.089 23.945C74.5359 28.2606 71.2641 31.1874 67.1251 33.0593C70.1115 32.9415 73.5013 32.8503 76.5089 32.8444C76.6168 33.6365 76.619 35.9106 76.6242 36.779H76.5617C73.6267 36.7733 70.6602 36.9078 67.7247 36.9606C61.2181 37.0778 54.3685 37.4213 48.4689 40.4499C46.497 41.4623 44.4998 42.8188 43.1466 44.6003C38.3278 50.9434 37.2738 59.375 37.2472 67.1198C37.2444 67.9405 37.2463 68.7606 37.2462 69.5808L37.2472 76.6706L33.3048 76.6696C33.3032 73.5701 33.2478 70.3 33.3175 67.2146C33.1561 67.6404 32.9778 68.0605 32.7843 68.4724C30.9975 72.2756 27.7677 75.2092 23.8107 76.6237C20.2433 77.8807 15.1027 78.1395 11.6222 76.4655C9.37513 75.3845 7.79234 73.5819 6.99134 71.2233C6.13045 68.6219 6.24017 65.457 7.41712 62.9753C8.89831 59.8519 13.0358 59.161 15.964 60.6052C15.8836 60.991 15.8152 61.3788 15.7599 61.7692C15.3537 64.7162 16.6912 66.4579 19.716 65.9382C21.0077 65.7162 21.6234 65.4744 22.6593 64.6657C24.1024 63.3351 24.8965 61.3332 24.296 59.4372C23.2049 55.9929 18.9977 56.238 16.3048 57.0446C16.2642 56.8807 16.2254 56.7159 16.1886 56.5515C15.549 53.6113 16.0477 50.1494 18.5714 48.2185C19.8226 47.2612 21.0282 46.8744 22.5294 46.5554C22.4487 46.4243 22.3644 46.2948 22.2775 46.1677C21.483 44.9753 20.2392 44.1555 18.8302 43.8952C16.6895 43.4961 13.8488 44.3941 12.0724 45.5983C11.5614 44.8084 11.1347 43.9665 10.799 43.0876C10.0058 41.057 9.60084 38.5505 10.5216 36.4987C11.5358 34.2393 13.4537 33.315 15.6095 32.4997C10.8172 30.5439 9.45981 26.6215 9.8097 21.8366C10.0641 18.3578 10.2176 13.9321 9.7306 10.4919C13.9008 11.1262 18.1802 10.7386 22.3615 10.4216C26.6882 10.0936 30.3259 12.1239 32.0411 16.1374C32.2259 15.3362 32.5379 14.6449 32.8995 13.9333C34.724 10.3443 38.3465 9.66302 41.921 10.8523C43.1027 11.2454 43.9157 11.6432 45.0265 12.238C43.9096 14.1434 42.9351 16.9502 43.4845 19.1286C43.9274 20.8845 44.7427 21.7771 46.2013 22.7146L46.2257 22.6003C46.7267 20.3192 47.3901 18.5019 49.4923 17.1237C51.4446 15.8439 54.321 15.7537 56.5646 16.2536C55.9401 18.3901 55.7416 21.4816 57.4259 23.1677C59.6248 25.3687 63.3472 24.2594 64.7863 21.7614C65.4658 20.5812 65.818 18.8151 65.4601 17.4987C64.808 15.1024 61.9744 15.3399 60.1085 15.8503C58.8874 13.4014 58.9748 10.4068 60.8781 8.26338C62.315 6.64566 64.9375 6.02182 67.0519 5.93721ZM67.1105 8.48311C63.9233 8.68998 62.2175 10.3988 61.1193 13.3347C64.5114 13.1685 69.4977 13.3299 69.713 17.8708C69.8411 20.5833 68.46 23.41 66.6495 25.4001C63.9816 28.3336 58.8638 29.9268 55.631 26.9333C52.9698 24.4696 53.3292 20.3177 54.0538 17.0632C50.7457 17.6538 47.7933 19.4711 48.4318 23.2937C48.6922 24.8526 49.848 26.0708 51.1027 26.9323C51.8324 27.4277 52.6173 27.8369 53.4415 28.1511C50.6246 28.4723 47.0457 28.219 44.8117 26.3171C41.3989 23.4115 39.8354 16.984 41.9103 13.0095C40.0893 12.5399 38.2099 12.5206 36.547 13.5075C32.9397 15.6487 32.5555 20.6283 34.5704 23.987C35.1716 25.0107 36.0094 25.8757 37.0138 26.5085C34.5933 26.0788 32.9261 25.5454 31.3595 23.4187C30.6907 22.5106 30.3139 21.2577 29.9347 20.1872C28.8066 17.0028 27.5519 14.3012 23.8605 13.6198C22.1656 13.307 21.1733 13.4865 19.5245 13.4714C17.2493 13.4505 14.0266 13.3285 11.8234 12.8308C12.3245 15.0314 12.5565 16.615 12.7482 18.903C13.0816 22.883 12.1566 26.6882 16.0597 29.2253C19.1684 31.2458 22.5698 30.7403 24.8634 33.7605C25.5028 34.6119 25.9536 35.5898 26.1876 36.6286C26.2671 36.9731 26.327 37.391 26.382 37.7439C23.3264 32.8843 14.3302 32.9672 12.837 39.236C12.5505 40.4394 12.7396 41.8661 13.1007 43.0437C14.6479 42.2409 16.0348 41.9162 17.7706 41.9675C21.3949 42.0746 25.751 43.6335 27.4943 47.0417C28.6354 49.273 28.7633 51.6495 28.6017 54.0866C27.6341 52.117 26.326 49.9165 24.0294 49.3288C20.4511 48.5347 18.3584 50.9644 17.6769 54.2165L17.5089 55.0544C20.458 54.3743 23.6073 53.8455 26.3634 55.5485C27.7769 56.4221 28.7183 57.8324 29.0685 59.448C30.1165 64.8134 25.8656 69.5073 20.7716 70.4333C18.9524 70.7637 16.9426 70.918 15.3263 69.8366C12.8234 68.1621 12.6511 64.8602 12.841 62.1647C11.378 62.7804 9.9682 63.6687 9.44837 65.194C8.18252 68.9099 10.4071 73.2681 14.0636 74.5603C17.3619 75.7959 21.086 75.3875 24.2853 74.0212C28.0879 72.3975 30.3599 69.2215 31.7677 65.4108C34.9456 56.808 34.962 46.8256 31.2345 38.4147C29.3296 34.041 26.6898 30.0247 23.4298 26.5417C22.1796 25.2068 20.6654 23.9064 19.5167 22.4626C19.0591 21.887 18.0183 19.4112 19.5236 19.4372C21.696 19.4751 23.6591 22.0062 25.2238 23.4177C26.2614 24.3601 27.3452 25.2503 28.4708 26.0856C30.6143 27.6757 32.9117 29.0478 35.3283 30.1804C41.8459 33.2966 47.662 34.2234 54.8566 33.5124C58.1433 33.1506 61.3195 32.4744 64.3966 31.2224C68.1663 29.6886 71.1096 27.7664 72.7365 23.9382C74.9909 18.6329 75.0201 8.6242 67.1105 8.48311Z" fill="black" style="fill:black;fill-opacity:1;"/>
<path d="M64.1735 42.041C64.8033 41.9942 65.6068 42.0266 66.2506 42.014C69.3289 41.954 72.3755 42.3714 75.4283 42.5452L75.4237 45.5005C74.768 45.5106 73.2304 45.3353 72.5425 45.275C71.1689 45.1558 69.7926 45.0639 68.4153 44.9994C62.7999 44.7014 54.6737 45.3512 50.3176 49.2662C45.9563 53.1858 44.1854 61.7385 43.8916 67.4245C43.8657 68.3416 43.763 69.2961 43.7364 70.2283C43.6762 72.3355 43.7603 74.3197 43.8438 76.4175C43.0371 76.3459 42.1717 76.3781 41.3493 76.3366C41.2673 75.8578 41.2095 75.2477 41.1957 74.7596C41.1554 73.3305 41.0099 71.7742 41.0306 70.357C41.1371 63.0618 42.2724 53.7969 47.2714 48.1425C51.3578 43.5201 58.3459 42.3223 64.1735 42.041Z" fill="black" style="fill:black;fill-opacity:1;"/>
</svg>
