<svg width="83" height="83" viewBox="0 0 83 83" fill="none" xmlns="http://www.w3.org/2000/svg">
<path fill-rule="evenodd" clip-rule="evenodd" d="M67.0511 5.93678C67.8573 5.75605 70.0989 6.2736 70.931 6.57546C77.7639 9.05413 78.1855 18.1158 76.0882 23.9446C74.5351 28.2604 71.2635 31.187 67.1244 33.0589C70.1108 32.9411 73.5014 32.8508 76.5091 32.845C76.617 33.6373 76.6192 35.9113 76.6244 36.7796L76.5609 36.7786C73.6259 36.7729 70.6595 36.9074 67.724 36.9602C61.2175 37.0774 54.3685 37.421 48.4691 40.4495C46.4971 41.4619 44.5 42.8193 43.1468 44.6008C38.328 50.944 37.273 59.3755 37.2464 67.1204C37.2436 67.9409 37.2465 68.7604 37.2464 69.5803L37.2474 76.6702H33.305C33.3034 73.5707 33.247 70.3006 33.3168 67.2151C33.1554 67.6409 32.9779 68.0601 32.7845 68.4719C30.9977 72.2754 27.7681 75.2097 23.8109 76.6243C20.2436 77.8812 15.1029 78.1391 11.6224 76.4651C9.37526 75.3841 7.79253 73.5816 6.99156 71.2229C6.13065 68.6214 6.2403 65.4566 7.41734 62.9749C8.89861 59.8517 13.0361 59.1606 15.9642 60.6048C15.8838 60.9907 15.8155 61.3792 15.7601 61.7698C15.354 64.7167 16.6914 66.4575 19.7162 65.9378C21.0078 65.7157 21.6236 65.474 22.6595 64.6653C24.1024 63.3348 24.8964 61.3336 24.2962 59.4378C23.2052 55.9933 18.9969 56.2375 16.3041 57.0442C16.2635 56.8805 16.2256 56.7162 16.1888 56.552C15.5492 53.6117 16.0478 50.1489 18.5716 48.218C19.8228 47.2609 21.0276 46.8739 22.5287 46.5549C22.448 46.4239 22.3645 46.2943 22.2777 46.1673C21.4832 44.975 20.2394 44.1551 18.8304 43.8948C16.6898 43.4957 13.8491 44.3937 12.0726 45.5979C11.5617 44.808 11.1339 43.967 10.7982 43.0882C10.005 41.0576 9.6011 38.5511 10.5218 36.4993C11.5359 34.2396 13.4538 33.3156 15.6097 32.5003C10.8171 30.5445 9.45998 26.6213 9.80992 21.8362C10.0643 18.3576 10.2177 13.9325 9.73082 10.4924C13.901 11.1268 18.1805 10.7382 22.3617 10.4212C26.6883 10.0932 30.3261 12.1235 32.0414 16.137C32.2261 15.3357 32.538 14.6445 32.8998 13.9329C34.7243 10.3441 38.3468 9.66262 41.9212 10.8518C43.1029 11.245 43.916 11.6428 45.0267 12.2376C43.9098 14.1429 42.9354 16.9496 43.4847 19.1282C43.9276 20.8841 44.742 21.7777 46.2005 22.7151L46.2259 22.5999C46.7269 20.3189 47.3905 18.5024 49.4925 17.1243C51.4448 15.8445 54.3212 15.7533 56.5648 16.2532C55.9403 18.3896 55.741 21.4811 57.4252 23.1673C59.6241 25.3688 63.3475 24.2594 64.7865 21.761C65.466 20.5809 65.8181 18.8156 65.4603 17.4993C64.8082 15.1026 61.9737 15.3394 60.1078 15.8499C58.8869 13.401 58.9751 10.4062 60.8783 8.26296C62.3152 6.64557 64.9369 6.02145 67.0511 5.93678ZM67.1097 8.48366C63.9228 8.69067 62.2176 10.3994 61.1195 13.3352C64.5115 13.169 69.4967 13.3298 69.7123 17.8704C69.8404 20.5827 68.4601 23.4096 66.6498 25.3997C63.982 28.333 58.8641 29.9268 55.6312 26.9339C52.97 24.4701 53.3294 20.3172 54.0541 17.0628C50.7457 17.6533 47.7933 19.4714 48.432 23.2942C48.6926 24.8529 49.8484 26.0704 51.1029 26.9319C51.8326 27.4273 52.6175 27.8364 53.4418 28.1507C50.625 28.4719 47.046 28.2193 44.8119 26.3176C41.3991 23.4121 39.8346 16.9836 41.9095 13.009C40.0885 12.5396 38.2092 12.521 36.5462 13.5081C32.9393 15.6494 32.5557 20.6289 34.5707 23.9876C35.1718 25.0111 36.0098 25.8754 37.014 26.5081C34.5934 26.0783 32.9263 25.545 31.3597 23.4182C30.691 22.5101 30.3141 21.2572 29.9349 20.1868C28.8069 17.0025 27.5519 14.3008 23.8607 13.6194C22.1659 13.3066 21.1735 13.487 19.5248 13.4719C17.2494 13.4511 14.026 13.3292 11.8226 12.8313C12.3237 15.0319 12.5557 16.6155 12.7474 18.9036C13.0807 22.8836 12.1565 26.6888 16.0599 29.2258C19.1685 31.2463 22.5691 30.7404 24.8627 33.76C25.5021 34.6115 25.9538 35.5893 26.1879 36.6282C26.2674 36.9727 26.3272 37.3905 26.3822 37.7434C23.3266 32.8838 14.3301 32.9674 12.8373 39.2366C12.5507 40.44 12.7397 41.8667 13.1009 43.0442C14.648 42.2416 16.0343 41.9159 17.7699 41.9671C21.3943 42.0741 25.7513 43.6337 27.4945 47.0423C28.6356 49.2736 28.7636 51.65 28.6019 54.0872C27.6343 52.1176 26.3262 49.9172 24.0296 49.3294C20.4513 48.5352 18.3586 50.9649 17.6771 54.2171L17.5082 55.054C20.4572 54.3739 23.6065 53.8453 26.3627 55.5481C27.7765 56.4217 28.7186 57.8326 29.0687 59.4485C30.1165 64.8139 25.8657 69.5069 20.7718 70.4329C18.9525 70.7633 16.943 70.9176 15.3265 69.8362C12.8238 68.1617 12.6514 64.8607 12.8412 62.1653C11.3781 62.7811 9.96831 63.669 9.44859 65.1946C8.18278 68.9104 10.4074 73.2686 14.0638 74.5608C17.362 75.7963 21.0863 75.3871 24.2855 74.0208C28.088 72.3971 30.3601 69.2211 31.7679 65.4104C34.9458 56.8076 34.9622 46.8251 31.2347 38.4143C29.3299 34.0406 26.6899 30.0253 23.43 26.5423C22.1799 25.2074 20.6657 23.9069 19.517 22.4632C19.0594 21.888 18.018 19.4115 19.5238 19.4378C21.6963 19.4756 23.6593 22.0057 25.224 23.4173C26.2617 24.3598 27.3453 25.2508 28.4711 26.0862C30.6145 27.6762 32.912 29.0474 35.3285 30.1799C41.846 33.2961 47.6614 34.2228 54.8558 33.512C58.1426 33.1502 61.3196 32.474 64.3968 31.2219C68.1664 29.6882 71.1099 27.766 72.7367 23.9378C74.9911 18.6324 75.0195 8.6245 67.1097 8.48366Z" fill="black" style="fill:black;fill-opacity:1;"/>
<path d="M64.1735 42.041C64.8033 41.9942 65.6068 42.0266 66.2506 42.014C69.3288 41.954 72.3755 42.3714 75.4283 42.5452L75.4236 45.5005C74.7679 45.5106 73.2304 45.3353 72.5425 45.275C71.1689 45.1558 69.7926 45.0639 68.4153 44.9994C62.7999 44.7014 54.6736 45.3512 50.3175 49.2662C45.9563 53.1858 44.1854 61.7385 43.8916 67.4245C43.8656 68.3416 43.763 69.2961 43.7364 70.2283C43.6762 72.3355 43.7603 74.3197 43.8438 76.4175C43.037 76.3459 42.1717 76.3781 41.3492 76.3366C41.2673 75.8578 41.2095 75.2477 41.1957 74.7596C41.1554 73.3305 41.0099 71.7742 41.0306 70.357C41.1371 63.0618 42.2724 53.7969 47.2713 48.1425C51.3577 43.5201 58.3459 42.3223 64.1735 42.041Z" fill="black" style="fill:black;fill-opacity:1;"/>
</svg>
