<svg width="60" height="60" viewBox="0 0 60 60" fill="none" xmlns="http://www.w3.org/2000/svg">
<path fill-rule="evenodd" clip-rule="evenodd" d="M11.5286 4.29238C10.9458 4.1619 9.32655 4.53512 8.7249 4.75332C3.78553 6.54506 3.48039 13.0954 4.99638 17.309C6.11909 20.4287 8.48387 22.5447 11.4759 23.8979C9.31716 23.8127 6.86676 23.7478 4.69267 23.7436C4.6147 24.3163 4.61243 25.9596 4.60868 26.5873H4.65458C6.77619 26.5832 8.9203 26.6799 11.0423 26.7182C15.7459 26.8029 20.6974 27.0513 24.9622 29.2406C26.3877 29.9725 27.8316 30.9537 28.8099 32.2416C32.2932 36.827 33.0553 42.9222 33.0745 48.5209C33.0765 49.114 33.0754 49.7065 33.0755 50.2992L33.0745 55.4242H35.9241C35.9253 53.1836 35.9657 50.8197 35.9153 48.5893C36.0319 48.897 36.1603 49.1998 36.3001 49.4975C37.5917 52.247 39.9267 54.3684 42.7874 55.391C45.3661 56.2996 49.082 56.4858 51.5979 55.2758C53.2224 54.4943 54.3676 53.1918 54.9466 51.4867C55.5689 49.6061 55.4889 47.3178 54.638 45.5238C53.5672 43.2664 50.5769 42.7672 48.4602 43.8109C48.5184 44.0899 48.5667 44.3704 48.6067 44.6527C48.9004 46.7831 47.9339 48.0422 45.7474 47.6664C44.8136 47.5059 44.3683 47.3311 43.6194 46.7465C42.5763 45.7847 42.0029 44.3377 42.4368 42.9672C43.2255 40.4774 46.2665 40.6537 48.2132 41.2367C48.2425 41.1183 48.2706 40.9991 48.2972 40.8803C48.7594 38.7548 48.3989 36.2526 46.5745 34.8568C45.6701 34.1649 44.7992 33.8853 43.7142 33.6547C43.7725 33.5599 43.833 33.4663 43.8958 33.3744C44.4701 32.5124 45.3694 31.92 46.388 31.7318C47.9353 31.4434 49.9886 32.0919 51.2727 32.9623C51.6421 32.3913 51.9509 31.7832 52.1936 31.1479C52.767 29.68 53.0594 27.8684 52.3938 26.3852C51.6608 24.7517 50.2746 24.0829 48.7161 23.4936C52.1802 22.0797 53.1614 19.2445 52.9085 15.7855C52.7246 13.2708 52.6131 10.0713 52.9651 7.58438C49.9507 8.04285 46.8577 7.76275 43.8352 7.53359C40.7075 7.29645 38.0782 8.76412 36.8382 11.6654C36.7047 11.0863 36.4785 10.587 36.2171 10.0727C34.8982 7.47822 32.2796 6.98543 29.6956 7.84512C28.8414 8.12934 28.2534 8.41618 27.4505 8.84609C28.2579 10.2234 28.9618 12.2527 28.5647 13.8275C28.2446 15.0968 27.6562 15.7427 26.6018 16.4203L26.5833 16.3373C26.2211 14.6883 25.7417 13.3746 24.222 12.3783C22.8107 11.4533 20.7314 11.3881 19.1097 11.7494C19.5611 13.2938 19.7051 15.5286 18.4876 16.7475C16.898 18.339 14.2066 17.5369 13.1663 15.7309C12.6751 14.8777 12.4203 13.6014 12.679 12.6498C13.1504 10.9173 15.1993 11.0894 16.5481 11.4584C17.4309 9.6881 17.3674 7.52251 15.9915 5.97305C14.9527 4.8039 13.0569 4.35354 11.5286 4.29238ZM11.4866 6.1332C13.7906 6.28277 15.0228 7.51767 15.8167 9.64004C13.3646 9.51992 9.76058 9.63623 9.60478 12.9184C9.51215 14.8792 10.5109 16.9231 11.8196 18.3617C13.7483 20.4822 17.4485 21.6341 19.7854 19.4701C21.709 17.6891 21.448 14.6869 20.9241 12.3344C23.3157 12.7613 25.4503 14.0758 24.9886 16.8393C24.8002 17.966 23.9648 18.8464 23.0579 19.4691C22.5305 19.8272 21.9633 20.1229 21.3675 20.35C23.4037 20.5822 25.9908 20.3995 27.6058 19.0248C30.0728 16.9244 31.2032 12.2779 29.7034 9.40469C31.0198 9.06525 32.3782 9.05152 33.5804 9.76504C36.1881 11.3129 36.4658 14.9122 35.0091 17.3402C34.5745 18.0802 33.9686 18.7051 33.2425 19.1625C34.9924 18.8519 36.1979 18.4666 37.3304 16.9291C37.8139 16.2726 38.0865 15.367 38.3606 14.5932C39.1761 12.2912 40.0829 10.3377 42.7513 9.84512C43.9765 9.61899 44.6941 9.74958 45.886 9.73867C47.5308 9.72359 49.8607 9.63565 51.4534 9.27578C51.0912 10.8665 50.923 12.0115 50.7845 13.6654C50.5436 16.5425 51.2117 19.2934 48.3899 21.1273C46.1428 22.5877 43.6846 22.2226 42.0267 24.4057C41.5646 25.021 41.2378 25.7272 41.0686 26.4779C41.0112 26.727 40.9687 27.0294 40.929 27.2846C43.1379 23.7717 49.6408 23.8318 50.72 28.3637C50.9271 29.2334 50.7906 30.2645 50.5296 31.1156C49.4111 30.5354 48.4084 30.3012 47.1536 30.3383C44.5336 30.4157 41.3844 31.5424 40.1243 34.0063C39.2994 35.6193 39.2076 37.3372 39.3245 39.099C40.024 37.6753 40.9691 36.0844 42.6292 35.6596C45.2159 35.0855 46.7283 36.8419 47.221 39.1928L47.3431 39.7982C45.2112 39.3066 42.9351 38.9246 40.9427 40.1557C39.9206 40.7872 39.2397 41.8069 38.9866 42.975C38.2292 46.8534 41.3015 50.2459 44.9837 50.9154C46.299 51.1543 47.7526 51.2657 48.9212 50.4838C50.73 49.2733 50.8543 46.8872 50.7171 44.9389C51.7747 45.384 52.7945 46.0255 53.1702 47.1283C54.0853 49.8144 52.4765 52.9647 49.8333 53.8988C47.4491 54.792 44.7573 54.4968 42.4446 53.5092C39.6957 52.3354 38.0532 50.0393 37.0354 47.2846C34.7383 41.0657 34.7267 33.85 37.4212 27.7699C38.7982 24.6081 40.7062 21.7048 43.0628 19.1869C43.9664 18.2221 45.0606 17.2822 45.8909 16.2387C46.2217 15.8229 46.9746 14.0322 45.886 14.0512C44.3157 14.0788 42.8969 15.9078 41.7659 16.9281C41.0157 17.6095 40.2321 18.2539 39.4183 18.8578C37.8689 20.0071 36.208 20.9981 34.4612 21.8168C29.7498 24.0695 25.5458 24.7399 20.345 24.226C17.9692 23.9645 15.6729 23.4757 13.4485 22.5707C10.7235 21.462 8.59526 20.0723 7.41923 17.3051C5.78948 13.4699 5.76862 6.23502 11.4866 6.1332Z" fill="black" style="fill:black;fill-opacity:1;"/>
<path d="M13.6095 30.3912C13.1543 30.3573 12.5734 30.3807 12.108 30.3717C9.88278 30.3283 7.68041 30.63 5.47353 30.7557L5.47691 32.892C5.95091 32.8993 7.06241 32.7726 7.55966 32.729C8.55266 32.6428 9.54753 32.5764 10.5432 32.5298C14.6025 32.3144 20.4769 32.784 23.6259 35.6142C26.7786 38.4477 28.0588 44.6303 28.2712 48.7407C28.2899 49.4037 28.3641 50.0937 28.3833 50.7675C28.4269 52.2908 28.3661 53.7252 28.3057 55.2417C28.8889 55.1899 29.5144 55.2132 30.109 55.1832C30.1682 54.837 30.21 54.396 30.22 54.0432C30.2491 53.01 30.3543 51.885 30.3394 50.8605C30.2623 45.5869 29.4417 38.8894 25.828 34.8019C22.8739 31.4604 17.8223 30.5945 13.6095 30.3912Z" fill="black" style="fill:black;fill-opacity:1;"/>
</svg>
