<svg width="83" height="83" viewBox="0 0 83 83" fill="none" xmlns="http://www.w3.org/2000/svg">
<path fill-rule="evenodd" clip-rule="evenodd" d="M15.948 77.0626C15.1416 77.2431 12.901 76.7257 12.0691 76.4239C5.23624 73.9452 4.81359 64.8835 6.91088 59.0547C8.46406 54.7391 11.7367 51.8123 15.8757 49.9405C12.8893 50.0582 9.49867 50.1495 6.49096 50.1553C6.38306 49.3633 6.38091 47.0891 6.37572 46.2208H6.43822C9.37316 46.2265 12.3397 46.092 15.2751 46.0391C21.7818 45.9219 28.6314 45.5785 34.531 42.5499C36.5029 41.5375 38.5001 40.1809 39.8533 38.3995C44.6721 32.0563 45.7271 23.6248 45.7537 15.8799C45.7565 15.0593 45.7536 14.2391 45.7537 13.419L45.7527 6.32916L49.6951 6.33014C49.6967 9.42967 49.7531 12.6997 49.6833 15.7852C49.8447 15.3594 50.0222 14.9402 50.2156 14.5284C52.0023 10.7249 55.232 7.79067 59.1892 6.37604C62.7565 5.11912 67.8972 4.8603 71.3777 6.53424C73.6249 7.61532 75.2076 9.41865 76.0085 11.7774C76.8693 14.3788 76.7596 17.5429 75.5828 20.0245C74.1016 23.1479 69.9641 23.8388 67.0359 22.3946C67.1163 22.0088 67.1846 21.621 67.24 21.2305C67.6462 18.2835 66.3087 16.5418 63.2839 17.0616C61.9922 17.2836 61.3766 17.5263 60.3406 18.335C58.8977 19.6656 58.1034 21.6667 58.7038 23.5626C59.7949 27.0069 64.0022 26.7617 66.6951 25.9551C66.7357 26.119 66.7745 26.2839 66.8113 26.4483C67.4509 29.3885 66.9521 32.8504 64.4285 34.7813C63.1774 35.7385 61.9724 36.1254 60.4714 36.4444C60.5522 36.5755 60.6355 36.705 60.7224 36.8321C61.5169 38.0245 62.7606 38.8442 64.1697 39.1045C66.3102 39.5037 69.151 38.6066 70.9275 37.4024C71.4384 38.1923 71.8652 39.0333 72.2009 39.9122C72.9941 41.9428 73.399 44.4492 72.4783 46.501C71.4641 48.7605 69.5462 49.6848 67.3904 50.5001C72.1827 52.4558 73.54 56.3782 73.1902 61.1631C72.9358 64.6419 72.7823 69.0677 73.2693 72.5079C69.0991 71.8735 64.8196 72.2612 60.6384 72.5782C56.3118 72.9062 52.6741 70.8766 50.9587 66.8633C50.774 67.6644 50.4619 68.3551 50.1003 69.0665C48.2758 72.6554 44.6533 73.3368 41.0788 72.1475C39.8974 71.7544 39.084 71.3574 37.9734 70.7628C39.0904 68.8574 40.0648 66.0497 39.5154 63.8712C39.0725 62.1153 38.2572 61.2227 36.7986 60.2852L36.7742 60.3995C36.2732 62.6806 35.6098 64.4979 33.5076 65.876C31.5553 67.1558 28.6789 67.247 26.4353 66.7471C27.0599 64.6107 27.2583 61.5192 25.574 59.8331C23.3751 57.6316 19.6528 58.7403 18.2136 61.2383C17.5341 62.4185 17.1819 64.1847 17.5398 65.501C18.1919 67.8976 21.0264 67.6599 22.8923 67.1495C24.1134 69.5984 24.0251 72.593 22.1218 74.7364C20.6849 76.3541 18.0624 76.9779 15.948 77.0626ZM15.8894 74.5167C19.0766 74.3098 20.7824 72.601 21.8806 69.6651C18.4885 69.8313 13.5021 69.6698 13.2869 65.129C13.1588 62.4165 14.5399 59.5897 16.3503 57.5997C19.0182 54.6663 24.136 53.0732 27.3689 56.0665C30.03 58.5302 29.6707 62.6821 28.946 65.9366C32.2543 65.346 35.2067 63.5288 34.5681 59.7061C34.3076 58.1472 33.1519 56.929 31.8972 56.0674C31.1676 55.5721 30.3825 55.1638 29.5583 54.8497C32.3752 54.5284 35.9542 54.7808 38.1882 56.6827C41.6009 59.5881 43.1651 66.0157 41.0906 69.9903C42.9116 70.4598 44.7909 70.4793 46.4538 69.4922C50.0609 67.351 50.4444 62.3714 48.4294 59.0128C47.8283 57.9891 46.9905 57.124 45.9861 56.4913C48.4066 56.921 50.0738 57.4544 51.6404 59.5811C52.3092 60.4892 52.6859 61.7421 53.0652 62.8126C54.1932 65.997 55.448 68.6996 59.1394 69.3809C60.8343 69.6937 61.8265 69.5133 63.4753 69.5284C65.7505 69.5492 68.9732 69.6712 71.1765 70.169C70.6754 67.9684 70.4444 66.3848 70.2527 64.0967C69.9193 60.1167 70.8434 56.3116 66.9402 53.7745C63.8315 51.7539 60.4301 52.2594 58.1365 49.2393C57.4972 48.388 57.0463 47.4107 56.8122 46.3721C56.7327 46.0276 56.6729 45.6089 56.6179 45.2559C59.6735 50.1155 68.6698 50.0326 70.1628 43.7637C70.4494 42.5604 70.2603 41.1337 69.8992 39.9561C68.352 40.7588 66.965 41.0835 65.2292 41.0323C61.6049 40.9252 57.2488 39.3663 55.5056 35.9581C54.3645 33.7267 54.2365 31.3503 54.3982 28.9131C55.3658 30.8828 56.6738 33.0832 58.9705 33.671C62.5488 34.4651 64.6415 32.0354 65.323 28.7833L65.491 27.9463C62.542 28.6264 59.3935 29.1541 56.6374 27.4512C55.2237 26.5777 54.2816 25.1676 53.9314 23.5518C52.8834 18.1864 57.1343 13.4934 62.2283 12.5674C64.0475 12.2371 66.0572 12.0819 67.6736 13.1631C70.1764 14.8377 70.3487 18.1396 70.1589 20.835C71.6219 20.2193 73.0317 19.3311 73.5515 17.8057C74.8174 14.0899 72.5927 9.73172 68.9363 8.43951C65.638 7.20396 61.9139 7.61226 58.7146 8.97858C54.912 10.6022 52.64 13.7783 51.2322 17.5889C48.0542 26.1919 48.0377 36.175 51.7654 44.586C53.6703 48.9597 56.3101 52.9751 59.5701 56.4581C60.8203 57.793 62.3345 59.0934 63.4831 60.5372C63.9407 61.1125 64.9818 63.5887 63.4763 63.5626C61.3039 63.5247 59.3407 60.9946 57.7761 59.5831C56.7384 58.6405 55.6548 57.7495 54.529 56.9141C52.3856 55.3241 50.0882 53.952 47.6716 52.8194C41.154 49.7032 35.3379 48.7764 28.1433 49.4874C24.8566 49.8491 21.6804 50.5253 18.6033 51.7774C14.8336 53.3112 11.8902 55.2334 10.2634 59.0616C8.00897 64.3668 7.9799 74.3755 15.8894 74.5167Z" fill="black" style="fill:black;fill-opacity:1;"/>
<path d="M18.8265 40.9589C18.1967 41.0057 17.3932 40.9733 16.7494 40.9858C13.6712 41.0459 10.6245 40.6285 7.57169 40.4546L7.57636 37.4994C8.23206 37.4893 9.76963 37.6646 10.4575 37.7249C11.8311 37.8441 13.2074 37.936 14.5847 38.0004C20.2001 38.2985 28.3264 37.6487 32.6825 33.7337C37.0437 29.814 38.8146 21.2614 39.1084 15.5754C39.1344 14.6582 39.237 13.7037 39.2636 12.7716C39.3238 10.6644 39.2397 8.68017 39.1562 6.58235C39.963 6.65393 40.8283 6.62177 41.6508 6.66327C41.7327 7.14207 41.7905 7.75213 41.8043 8.24027C41.8446 9.66943 41.9901 11.2257 41.9694 12.6429C41.8629 19.9381 40.7276 29.203 35.7287 34.8574C31.6423 39.4798 24.6541 40.6776 18.8265 40.9589Z" fill="black" style="fill:black;fill-opacity:1;"/>
</svg>
