<svg width="83" height="83" viewBox="0 0 83 83" fill="none" xmlns="http://www.w3.org/2000/svg">
<path fill-rule="evenodd" clip-rule="evenodd" d="M15.948 77.0626C15.1416 77.2431 12.901 76.7257 12.0691 76.4239C5.23647 73.9452 4.81377 64.8845 6.91087 59.0557C8.46401 54.7399 11.7366 51.8133 15.8757 49.9415C12.8893 50.0592 9.49866 50.1495 6.49095 50.1553C6.38305 49.3632 6.38091 47.0891 6.37572 46.2208H6.43822C9.37315 46.2265 12.3397 46.093 15.2751 46.0401C21.7818 45.9229 28.6314 45.5785 34.531 42.5499C36.5029 41.5375 38.5001 40.181 39.8533 38.3995C44.6721 32.0563 45.7271 23.6249 45.7536 15.8799C45.7564 15.0594 45.7535 14.24 45.7536 13.42L45.7527 6.33013H49.6951C49.6967 9.42966 49.7531 12.6997 49.6833 15.7852C49.8447 15.3594 50.0221 14.9402 50.2156 14.5284C52.0023 10.7249 55.232 7.79066 59.1892 6.37603C62.7565 5.11911 67.8972 4.86121 71.3777 6.53521C73.6248 7.61629 75.2076 9.4187 76.0085 11.7774C76.8694 14.3788 76.7596 17.5429 75.5827 20.0245C74.1016 23.1479 69.9641 23.8388 67.0359 22.3946C67.1163 22.0088 67.1846 21.621 67.24 21.2305C67.6462 18.2835 66.3087 16.5428 63.2839 17.0626C61.9923 17.2846 61.3765 17.5263 60.3406 18.335C58.8977 19.6656 58.1035 21.6667 58.7038 23.5626C59.7949 27.0068 64.0021 26.7626 66.6951 25.9561C66.7356 26.1198 66.7745 26.284 66.8113 26.4483C67.4509 29.3886 66.9523 32.8514 64.4285 34.7823C63.1774 35.7394 61.9724 36.1264 60.4714 36.4454C60.5521 36.5762 60.6357 36.7052 60.7224 36.8321C61.5169 38.0245 62.7606 38.8442 64.1697 39.1045C66.3102 39.5037 69.151 38.6066 70.9275 37.4024C71.4384 38.1923 71.8662 39.0332 72.2019 39.9122C72.995 41.9427 73.399 44.4492 72.4783 46.501C71.4641 48.7606 69.5462 49.6848 67.3904 50.5001C72.1827 52.4558 73.54 56.3783 73.1902 61.1631C72.9358 64.6419 72.7823 69.0677 73.2693 72.5079C69.0991 71.8735 64.8196 72.2612 60.6384 72.5782C56.3118 72.9062 52.674 70.8767 50.9587 66.8633C50.774 67.6644 50.4619 68.355 50.1003 69.0665C48.2758 72.6554 44.6533 73.3367 41.0788 72.1475C39.8974 71.7544 39.084 71.3574 37.9734 70.7627C39.0903 68.8575 40.0645 66.0506 39.5154 63.8721C39.0725 62.1163 38.258 61.2226 36.7995 60.2852L36.7742 60.4004C36.2732 62.6814 35.6096 64.4979 33.5076 65.876C31.5553 67.1558 28.6789 67.247 26.4353 66.7471C27.0599 64.6107 27.2583 61.5192 25.574 59.8331C23.375 57.6316 19.6526 58.7409 18.2136 61.2393C17.5341 62.4195 17.1819 64.1847 17.5398 65.501C18.1918 67.8977 21.0264 67.6599 22.8923 67.1495C24.1135 69.5984 24.0251 72.5939 22.1218 74.7374C20.6848 76.3548 18.0622 76.978 15.948 77.0626ZM15.8894 74.5167C19.0766 74.3098 20.7824 72.6011 21.8806 69.6651C18.4885 69.8313 13.5021 69.6698 13.2868 65.129C13.1589 62.4166 14.54 59.5897 16.3503 57.5997C19.0182 54.6663 24.1361 53.0733 27.3689 56.0665C30.03 58.5301 29.6707 62.6822 28.946 65.9366C32.2543 65.346 35.2068 63.5288 34.5681 59.7061C34.3076 58.1473 33.1518 56.929 31.8972 56.0674C31.1676 55.5721 30.3825 55.1638 29.5583 54.8497C32.3752 54.5284 35.9542 54.7809 38.1882 56.6827C41.601 59.5882 43.1655 66.0167 41.0906 69.9913C42.9115 70.4607 44.791 70.4793 46.4538 69.4922C50.0608 67.3509 50.4444 62.3714 48.4294 59.0127C47.8283 57.9892 46.9903 57.125 45.9861 56.4922C48.4065 56.9219 50.0739 57.4545 51.6404 59.5811C52.3092 60.4891 52.686 61.7421 53.0652 62.8126C54.1932 65.997 55.448 68.6995 59.1394 69.3809C60.8343 69.6937 61.8265 69.5133 63.4753 69.5284C65.7507 69.5492 68.9742 69.6712 71.1775 70.169C70.6764 67.9684 70.4443 66.3848 70.2527 64.0967C69.9193 60.1167 70.8435 56.3115 66.9402 53.7745C63.8315 51.7539 60.431 52.2594 58.1374 49.2393C57.498 48.3879 57.0463 47.4109 56.8122 46.3721C56.7327 46.0277 56.6729 45.6098 56.6179 45.2569C59.6736 50.1164 68.6699 50.0328 70.1628 43.7637C70.4494 42.5603 70.2604 41.1337 69.8992 39.9561C68.352 40.7588 66.965 41.0835 65.2292 41.0323C61.6049 40.9251 57.2488 39.3664 55.5056 35.9581C54.3644 33.7267 54.2365 31.3504 54.3982 28.9131C55.3658 30.8828 56.6738 33.0832 58.9704 33.671C62.5488 34.4651 64.6415 32.0355 65.323 28.7833L65.491 27.9463C62.5421 28.6263 59.3934 29.1548 56.6374 27.4522C55.2237 26.5786 54.2816 25.1677 53.9314 23.5518C52.8834 18.1864 57.1343 13.4934 62.2283 12.5674C64.0476 12.237 66.0571 12.0826 67.6736 13.1641C70.1764 14.8386 70.3487 18.1396 70.1589 20.835C71.622 20.2193 73.0317 19.3312 73.5515 17.8057C74.8174 14.0899 72.5927 9.73171 68.9363 8.43951C65.6381 7.20399 61.9138 7.61228 58.7146 8.97857C54.9121 10.6022 52.64 13.7783 51.2322 17.5889C48.0542 26.1919 48.0377 36.175 51.7654 44.586C53.6703 48.9597 56.3101 52.975 59.5701 56.4581C60.8203 57.793 62.3344 59.0933 63.4831 60.5372C63.9407 61.1123 64.982 63.5887 63.4763 63.5626C61.3038 63.5247 59.3408 60.9946 57.7761 59.5831C56.7384 58.6405 55.6548 57.7496 54.529 56.9141C52.3856 55.3241 50.0882 53.9529 47.6716 52.8204C41.1539 49.7041 35.3379 48.7774 28.1433 49.4883C24.8567 49.8501 21.6803 50.5254 18.6033 51.7774C14.8335 53.3112 11.8902 55.2342 10.2634 59.0626C8.00913 64.3679 7.98011 74.3755 15.8894 74.5167Z" fill="black" style="fill:black;fill-opacity:1;"/>
<path d="M18.8265 40.9589C18.1967 41.0057 17.3932 40.9733 16.7494 40.9858C13.6712 41.0459 10.6245 40.6285 7.57169 40.4546L7.57636 37.4994C8.23206 37.4893 9.76963 37.6646 10.4575 37.7249C11.8311 37.8441 13.2074 37.936 14.5847 38.0004C20.2001 38.2985 28.3264 37.6487 32.6825 33.7337C37.0437 29.814 38.8146 21.2614 39.1084 15.5754C39.1344 14.6582 39.237 13.7037 39.2636 12.7716C39.3238 10.6644 39.2397 8.68017 39.1562 6.58235C39.963 6.65393 40.8283 6.62177 41.6508 6.66327C41.7327 7.14207 41.7905 7.75213 41.8043 8.24027C41.8446 9.66943 41.9901 11.2257 41.9694 12.6429C41.8629 19.9381 40.7276 29.203 35.7287 34.8574C31.6423 39.4798 24.6541 40.6776 18.8265 40.9589Z" fill="black" style="fill:black;fill-opacity:1;"/>
</svg>
