<svg width="83" height="83" viewBox="0 0 83 83" fill="none" xmlns="http://www.w3.org/2000/svg">
<path fill-rule="evenodd" clip-rule="evenodd" d="M15.9489 5.93678C15.1427 5.75605 12.9011 6.2736 12.069 6.57546C5.23608 9.05413 4.81446 18.1158 6.91176 23.9446C8.4649 28.2604 11.7365 31.187 15.8756 33.0589C12.8892 32.9411 9.49857 32.8508 6.49086 32.845C6.383 33.6373 6.38081 35.9113 6.37563 36.7796L6.4391 36.7786C9.37406 36.7729 12.3405 36.9074 15.276 36.9602C21.7825 37.0774 28.6315 37.421 34.5309 40.4495C36.5029 41.4619 38.5 42.8193 39.8532 44.6008C44.672 50.944 45.727 59.3755 45.7536 67.1204C45.7564 67.9409 45.7535 68.7604 45.7536 69.5803L45.7526 76.6702H49.695C49.6966 73.5707 49.753 70.3006 49.6832 67.2151C49.8446 67.6409 50.0221 68.0601 50.2155 68.4719C52.0023 72.2754 55.2319 75.2097 59.1891 76.6243C62.7564 77.8812 67.8971 78.1391 71.3776 76.4651C73.6247 75.3841 75.2075 73.5816 76.0084 71.2229C76.8694 68.6214 76.7597 65.4566 75.5827 62.9749C74.1014 59.8517 69.9639 59.1606 67.0358 60.6048C67.1162 60.9907 67.1845 61.3792 67.2399 61.7698C67.646 64.7167 66.3086 66.4575 63.2838 65.9378C61.9922 65.7157 61.3764 65.474 60.3405 64.6653C58.8976 63.3348 58.1036 61.3336 58.7038 59.4378C59.7948 55.9933 64.0031 56.2375 66.6959 57.0442C66.7365 56.8805 66.7744 56.7162 66.8112 56.552C67.4508 53.6117 66.9522 50.1489 64.4284 48.218C63.1772 47.2609 61.9724 46.8739 60.4713 46.5549C60.552 46.4239 60.6355 46.2943 60.7223 46.1673C61.5168 44.975 62.7606 44.1551 64.1696 43.8948C66.3102 43.4957 69.1509 44.3937 70.9274 45.5979C71.4383 44.808 71.8661 43.967 72.2018 43.0882C72.995 41.0576 73.3989 38.5511 72.4782 36.4993C71.4641 34.2396 69.5462 33.3156 67.3903 32.5003C72.1829 30.5445 73.54 26.6213 73.1901 21.8362C72.9357 18.3576 72.7823 13.9325 73.2692 10.4924C69.099 11.1268 64.8195 10.7382 60.6383 10.4212C56.3117 10.0932 52.6739 12.1235 50.9586 16.137C50.7739 15.3357 50.462 14.6445 50.1002 13.9329C48.2757 10.3441 44.6532 9.66262 41.0788 10.8518C39.8971 11.245 39.084 11.6428 37.9733 12.2376C39.0902 14.1429 40.0646 16.9496 39.5153 19.1282C39.0724 20.8841 38.258 21.7777 36.7995 22.7151L36.7741 22.5999C36.2731 20.3189 35.6095 18.5024 33.5075 17.1243C31.5552 15.8445 28.6788 15.7533 26.4352 16.2532C27.0597 18.3896 27.259 21.4811 25.5748 23.1673C23.3759 25.3688 19.6525 24.2594 18.2135 21.761C17.534 20.5809 17.1819 18.8156 17.5397 17.4993C18.1918 15.1026 21.0263 15.3394 22.8922 15.8499C24.1131 13.401 24.0249 10.4062 22.1217 8.26296C20.6848 6.64557 18.0631 6.02145 15.9489 5.93678ZM15.8903 8.48366C19.0772 8.69067 20.7824 10.3994 21.8805 13.3352C18.4885 13.169 13.5033 13.3298 13.2877 17.8704C13.1596 20.5827 14.5399 23.4096 16.3502 25.3997C19.018 28.333 24.1359 29.9268 27.3688 26.9339C30.03 24.4701 29.6706 20.3172 28.9459 17.0628C32.2543 17.6533 35.2067 19.4714 34.568 23.2942C34.3074 24.8529 33.1516 26.0704 31.8971 26.9319C31.1674 27.4273 30.3825 27.8364 29.5582 28.1507C32.375 28.4719 35.954 28.2193 38.1881 26.3176C41.6009 23.4121 43.1654 16.9836 41.0905 13.009C42.9115 12.5396 44.7908 12.521 46.4538 13.5081C50.0607 15.6494 50.4443 20.6289 48.4293 23.9876C47.8282 25.0111 46.9902 25.8754 45.986 26.5081C48.4066 26.0783 50.0737 25.545 51.6403 23.4182C52.309 22.5101 52.6859 21.2572 53.0651 20.1868C54.1931 17.0025 55.4481 14.3008 59.1393 13.6194C60.8341 13.3066 61.8265 13.487 63.4752 13.4719C65.7506 13.4511 68.974 13.3292 71.1774 12.8313C70.6763 15.0319 70.4443 16.6155 70.2526 18.9036C69.9193 22.8836 70.8435 26.6888 66.9401 29.2258C63.8315 31.2463 60.4309 30.7404 58.1373 33.76C57.4979 34.6115 57.0462 35.5893 56.8121 36.6282C56.7326 36.9727 56.6728 37.3905 56.6178 37.7434C59.6734 32.8838 68.6699 32.9674 70.1627 39.2366C70.4493 40.44 70.2603 41.8667 69.8991 43.0442C68.352 42.2416 66.9657 41.9159 65.2301 41.9671C61.6057 42.0741 57.2487 43.6337 55.5055 47.0423C54.3644 49.2736 54.2364 51.65 54.3981 54.0872C55.3657 52.1176 56.6738 49.9172 58.9704 49.3294C62.5487 48.5352 64.6414 50.9649 65.3229 54.2171L65.4918 55.054C62.5428 54.3739 59.3935 53.8453 56.6373 55.5481C55.2235 56.4217 54.2814 57.8326 53.9313 59.4485C52.8835 64.8139 57.1343 69.5069 62.2282 70.4329C64.0475 70.7633 66.057 70.9176 67.6735 69.8362C70.1762 68.1617 70.3486 64.8607 70.1588 62.1653C71.6219 62.7811 73.0317 63.669 73.5514 65.1946C74.8172 68.9104 72.5926 73.2686 68.9362 74.5608C65.638 75.7963 61.9137 75.3871 58.7145 74.0208C54.912 72.3971 52.6399 69.2211 51.2321 65.4104C48.0542 56.8076 48.0378 46.8251 51.7653 38.4143C53.6701 34.0406 56.3101 30.0253 59.57 26.5423C60.8201 25.2074 62.3343 23.9069 63.483 22.4632C63.9406 21.888 64.982 19.4115 63.4762 19.4378C61.3037 19.4756 59.3407 22.0057 57.776 23.4173C56.7383 24.3598 55.6547 25.2508 54.5289 26.0862C52.3855 27.6762 50.088 29.0474 47.6715 30.1799C41.154 33.2961 35.3386 34.2228 28.1442 33.512C24.8574 33.1502 21.6804 32.474 18.6032 31.2219C14.8336 29.6882 11.8901 27.766 10.2633 23.9378C8.00893 18.6324 7.98048 8.6245 15.8903 8.48366Z" fill="black" style="fill:black;fill-opacity:1;"/>
<path d="M18.8265 42.041C18.1967 41.9942 17.3932 42.0266 16.7494 42.014C13.6712 41.954 10.6245 42.3714 7.57169 42.5452L7.57636 45.5005C8.23206 45.5106 9.76963 45.3353 10.4575 45.275C11.8311 45.1558 13.2074 45.0639 14.5847 44.9994C20.2001 44.7014 28.3264 45.3512 32.6825 49.2662C37.0437 53.1858 38.8146 61.7385 39.1084 67.4245C39.1344 68.3416 39.237 69.2961 39.2636 70.2283C39.3238 72.3355 39.2397 74.3197 39.1562 76.4175C39.963 76.3459 40.8283 76.3781 41.6508 76.3366C41.7327 75.8578 41.7905 75.2477 41.8043 74.7596C41.8446 73.3305 41.9901 71.7742 41.9694 70.357C41.8629 63.0618 40.7276 53.7969 35.7287 48.1425C31.6423 43.5201 24.6541 42.3223 18.8265 42.041Z" fill="black" style="fill:black;fill-opacity:1;"/>
</svg>
