<svg width="83" height="83" viewBox="0 0 83 83" fill="none" xmlns="http://www.w3.org/2000/svg">
<path fill-rule="evenodd" clip-rule="evenodd" d="M15.9482 5.93697C15.1419 5.75642 12.9014 6.27381 12.0693 6.57564C5.23631 9.05428 4.81377 18.116 6.91108 23.9448C8.46419 28.2605 11.736 31.1872 15.875 33.059C12.8886 32.9413 9.49874 32.851 6.49116 32.8452C6.38332 33.6375 6.38111 35.9103 6.37592 36.7788H6.43842C9.37341 36.7731 12.3398 36.9075 15.2753 36.9604C21.782 37.0776 28.6316 37.421 34.5312 40.4497C36.5031 41.4621 38.5003 42.8195 39.8535 44.601C44.672 50.944 45.7263 59.3749 45.7529 67.1196C45.7557 67.9403 45.7538 68.7604 45.7539 69.5805L45.7529 76.6704L49.6953 76.6694C49.6969 73.5701 49.7523 70.3006 49.6826 67.2153C49.8439 67.6411 50.0224 68.0603 50.2158 68.4721C52.0026 72.2754 55.2323 75.2099 59.1894 76.6245C62.7567 77.8813 67.8975 78.1392 71.3779 76.4653C73.6249 75.3843 75.2078 73.5817 76.0087 71.2231C76.8697 68.6216 76.759 65.4568 75.582 62.9751C74.1007 59.8519 69.9642 59.1608 67.0361 60.6049C67.1165 60.9909 67.1848 61.3794 67.2402 61.77C67.6462 64.7167 66.3087 66.4576 63.2841 65.9379C61.9924 65.7159 61.3767 65.4742 60.3408 64.6655C58.8977 63.3349 58.1035 61.333 58.7041 59.437C59.7952 55.9929 64.0024 56.2378 66.6953 57.0444C66.7359 56.8805 66.7747 56.7157 66.8115 56.5512C67.451 53.6111 66.9523 50.1491 64.4287 48.2182C63.1774 47.261 61.9719 46.8741 60.4707 46.5551C60.5514 46.424 60.6357 46.2946 60.7226 46.1674C61.5171 44.9752 62.7609 44.1553 64.1699 43.895C66.3106 43.4959 69.1513 44.3938 70.9277 45.5981C71.4387 44.8082 71.8654 43.9663 72.2011 43.0874C72.9942 41.0569 73.399 38.5511 72.4785 36.4995C71.4643 34.2397 69.5456 33.3158 67.3896 32.5004C72.1823 30.5447 73.5403 26.6215 73.1904 21.8364C72.936 18.3576 72.7815 13.9318 73.2685 10.4917C69.0985 11.1259 64.8197 10.7383 60.6386 10.4213C56.3119 10.0933 52.6742 12.1236 50.9589 16.1372C50.7742 15.3359 50.4623 14.6447 50.1005 13.9331C48.276 10.3441 44.6535 9.66278 41.0791 10.852C39.8974 11.2452 39.0844 11.643 37.9736 12.2378C39.0905 14.1431 40.0649 16.9499 39.5156 19.1284C39.0727 20.8843 38.2575 21.7778 36.7988 22.7153L36.7744 22.6001C36.2734 20.319 35.61 18.5016 33.5078 17.1235C31.5555 15.8437 28.6791 15.7535 26.4355 16.2534C27.06 18.3898 27.2585 21.4814 25.5742 23.1674C23.3752 25.3687 19.6518 24.2595 18.2128 21.7612C17.5333 20.581 17.1811 18.8148 17.539 17.4985C18.1911 15.1022 21.0256 15.3397 22.8916 15.8501C24.1127 13.4011 24.0253 10.4066 22.122 8.26314C20.6851 6.64546 18.0626 6.02158 15.9482 5.93697ZM15.8896 8.48385C19.0768 8.69072 20.7826 10.3994 21.8808 13.3354C18.4887 13.1692 13.5024 13.3298 13.2871 17.8706C13.1589 20.583 14.5401 23.4097 16.3505 25.3999C19.0185 28.3333 24.1362 29.9266 27.3691 26.9331C30.0302 24.4693 29.67 20.3174 28.9453 17.0629C32.2535 17.6535 35.2067 19.4709 34.5683 23.2934C34.3079 24.8523 33.152 26.0706 31.8974 26.9321C31.1677 27.4275 30.3828 27.8366 29.5585 28.1508C32.3754 28.4721 35.9544 28.2188 38.1884 26.3169C41.6011 23.4112 43.1647 16.9837 41.0898 13.0092C42.9108 12.5397 44.7902 12.5204 46.4531 13.5073C50.0603 15.6484 50.4445 20.628 48.4296 23.9868C47.8285 25.0104 46.9906 25.8755 45.9863 26.5083C48.4067 26.0785 50.074 25.5451 51.6406 23.4184C52.3093 22.5103 52.6862 21.2574 53.0654 20.187C54.1934 17.0026 55.4482 14.3009 59.1396 13.6196C60.8345 13.3068 61.8267 13.4862 63.4755 13.4711C65.7507 13.4503 68.9735 13.3293 71.1767 12.8315C70.6757 15.0318 70.4436 16.615 70.2519 18.9028C69.9185 22.883 70.843 26.688 66.9394 29.2251C63.8307 31.2455 60.4302 30.7401 58.1367 33.7602C57.4972 34.6117 57.0455 35.5895 56.8115 36.6284C56.732 36.9729 56.6731 37.3908 56.6181 37.7436C59.6737 32.884 68.6702 32.9676 70.163 39.2368C70.4494 40.4399 70.2604 41.8661 69.8994 43.0434C68.3522 42.2407 66.9652 41.916 65.2294 41.9672C61.605 42.0743 57.249 43.634 55.5058 47.0424C54.3647 49.2738 54.2367 51.6502 54.3984 54.0874C55.366 52.1177 56.6739 49.9163 58.9707 49.3286C62.5488 48.5345 64.6416 50.9643 65.3232 54.2163L65.4912 55.0542C62.5421 54.3741 59.3928 53.8453 56.6367 55.5483C55.223 56.4219 54.2817 57.8329 53.9316 59.4487C52.8839 64.8138 57.1338 69.5069 62.2275 70.4331C64.0469 70.7635 66.0573 70.9179 67.6738 69.8364C70.1766 68.1619 70.3489 64.8599 70.1591 62.1645C71.6222 62.7803 73.032 63.6692 73.5517 65.1948C74.8173 68.9105 72.5928 73.2678 68.9365 74.56C65.6382 75.7957 61.9142 75.3873 58.7148 74.021C54.9121 72.3973 52.6402 69.2213 51.2324 65.4106C48.0545 56.8077 48.038 46.8254 51.7656 38.4145C53.6704 34.0408 56.3104 30.0254 59.5703 26.5424C60.8205 25.2075 62.3346 23.9062 63.4833 22.4624C63.941 21.8865 64.9816 19.411 63.4765 19.437C61.304 19.4748 59.341 22.0059 57.7763 23.4174C56.7387 24.3599 55.6549 25.2501 54.5292 26.0854C52.3858 27.6754 50.0884 29.0476 47.6718 30.1801C41.1541 33.2964 35.3382 34.2231 28.1435 33.5122C24.8568 33.1504 21.6806 32.4742 18.6035 31.2221C14.8337 29.6883 11.8904 27.7662 10.2636 23.9379C8.00916 18.6327 7.97995 8.62489 15.8896 8.48385Z" fill="black" style="fill:black;fill-opacity:1;"/>
<path d="M18.8265 42.041C18.1967 41.9942 17.3932 42.0266 16.7494 42.014C13.6712 41.954 10.6245 42.3714 7.57169 42.5452L7.57636 45.5005C8.23206 45.5106 9.76963 45.3353 10.4575 45.275C11.8311 45.1558 13.2074 45.0639 14.5847 44.9994C20.2001 44.7014 28.3264 45.3512 32.6825 49.2662C37.0437 53.1858 38.8146 61.7385 39.1084 67.4245C39.1344 68.3416 39.237 69.2961 39.2636 70.2283C39.3238 72.3355 39.2397 74.3197 39.1562 76.4175C39.963 76.3459 40.8283 76.3781 41.6508 76.3366C41.7327 75.8578 41.7905 75.2477 41.8043 74.7596C41.8446 73.3305 41.9901 71.7742 41.9694 70.357C41.8629 63.0618 40.7276 53.7969 35.7287 48.1425C31.6423 43.5201 24.6541 42.3223 18.8265 42.041Z" fill="black" style="fill:black;fill-opacity:1;"/>
</svg>
