<svg width="83" height="83" viewBox="0 0 83 83" fill="none" xmlns="http://www.w3.org/2000/svg">
<path fill-rule="evenodd" clip-rule="evenodd" d="M67.052 77.0626C67.8584 77.2431 70.0989 76.7257 70.9309 76.4239C77.7637 73.9452 78.1864 64.8835 76.0891 59.0547C74.5359 54.7391 71.2633 51.8123 67.1243 49.9405C70.1107 50.0582 73.5013 50.1495 76.509 50.1553C76.6169 49.3633 76.6191 47.0891 76.6243 46.2208H76.5618C73.6268 46.2265 70.6603 46.092 67.7248 46.0391C61.2182 45.9219 54.3686 45.5785 48.469 42.5499C46.4971 41.5375 44.4999 40.1809 43.1467 38.3995C38.3279 32.0563 37.2729 23.6248 37.2463 15.8799C37.2435 15.0593 37.2464 14.2391 37.2463 13.419L37.2473 6.32916L33.3049 6.33014C33.3033 9.42967 33.2469 12.6997 33.3166 15.7852C33.1553 15.3594 32.9778 14.9402 32.7844 14.5284C30.9976 10.7249 27.768 7.79067 23.8108 6.37604C20.2435 5.11912 15.1028 4.8603 11.6223 6.53424C9.37507 7.61532 7.79239 9.41865 6.99144 11.7774C6.13064 14.3788 6.24033 17.5429 7.41722 20.0245C8.89841 23.1479 13.0359 23.8388 15.9641 22.3946C15.8837 22.0088 15.8153 21.621 15.76 21.2305C15.3538 18.2835 16.6913 16.5418 19.716 17.0616C21.0078 17.2836 21.6234 17.5263 22.6594 18.335C24.1023 19.6656 24.8966 21.6667 24.2961 23.5626C23.2051 27.0069 18.9978 26.7617 16.3049 25.9551C16.2643 26.119 16.2255 26.2839 16.1887 26.4483C15.5491 29.3885 16.0478 32.8504 18.5715 34.7813C19.8226 35.7385 21.0276 36.1254 22.5285 36.4444C22.4478 36.5755 22.3644 36.705 22.2776 36.8321C21.4831 38.0245 20.2393 38.8442 18.8303 39.1045C16.6898 39.5037 13.849 38.6066 12.0725 37.4024C11.5616 38.1923 11.1348 39.0333 10.7991 39.9122C10.0059 41.9428 9.60093 44.4492 10.5217 46.501C11.5359 48.7605 13.4538 49.6848 15.6096 50.5001C10.8173 52.4558 9.45994 56.3782 9.8098 61.1631C10.0642 64.6419 10.2177 69.0677 9.7307 72.5079C13.9009 71.8735 18.1803 72.2612 22.3616 72.5782C26.6881 72.9062 30.3259 70.8766 32.0412 66.8633C32.226 67.6644 32.538 68.3551 32.8996 69.0665C34.7241 72.6554 38.3466 73.3368 41.9211 72.1475C43.1026 71.7544 43.916 71.3574 45.0266 70.7628C43.9096 68.8574 42.9352 66.0497 43.4846 63.8712C43.9275 62.1153 44.7428 61.2227 46.2014 60.2852L46.2258 60.3995C46.7268 62.6806 47.3902 64.4979 49.4924 65.876C51.4447 67.1558 54.3211 67.247 56.5647 66.7471C55.9401 64.6107 55.7417 61.5192 57.426 59.8331C59.6249 57.6316 63.3472 58.7403 64.7864 61.2383C65.4659 62.4185 65.8181 64.1847 65.4602 65.501C64.8081 67.8976 61.9736 67.6599 60.1077 67.1495C58.8866 69.5984 58.9749 72.593 60.8782 74.7364C62.3151 76.3541 64.9376 76.9779 67.052 77.0626ZM67.1106 74.5167C63.9234 74.3098 62.2176 72.601 61.1194 69.6651C64.5115 69.8313 69.4978 69.6698 69.7131 65.129C69.8412 62.4165 68.46 59.5897 66.6496 57.5997C63.9818 54.6663 58.8639 53.0732 55.6311 56.0665C52.97 58.5302 53.3293 62.6821 54.0539 65.9366C50.7457 65.346 47.7933 63.5288 48.4319 59.7061C48.6923 58.1472 49.8481 56.929 51.1028 56.0674C51.8324 55.5721 52.6175 55.1638 53.4416 54.8497C50.6248 54.5284 47.0458 54.7808 44.8118 56.6827C41.3991 59.5881 39.8348 66.0157 41.9094 69.9903C40.0884 70.4598 38.209 70.4793 36.5461 69.4922C32.9391 67.351 32.5556 62.3714 34.5705 59.0128C35.1717 57.9891 36.0095 57.124 37.0139 56.4913C34.5934 56.921 32.9262 57.4544 31.3596 59.5811C30.6908 60.4892 30.314 61.7421 29.9348 62.8126C28.8067 65.997 27.552 68.6996 23.8606 69.3809C22.1657 69.6937 21.1734 69.5133 19.5246 69.5284C17.2494 69.5492 14.0268 69.6712 11.8235 70.169C12.3246 67.9684 12.5556 66.3848 12.7473 64.0967C13.0807 60.1167 12.1566 56.3116 16.0598 53.7745C19.1685 51.7539 22.5699 52.2594 24.8635 49.2393C25.5028 48.388 25.9537 47.4107 26.1877 46.3721C26.2673 46.0276 26.3271 45.6089 26.3821 45.2559C23.3265 50.1155 14.3302 50.0326 12.8371 43.7637C12.5506 42.5604 12.7396 41.1337 13.1008 39.9561C14.648 40.7588 16.0349 41.0835 17.7707 41.0323C21.395 40.9252 25.7512 39.3663 27.4944 35.9581C28.6355 33.7267 28.7635 31.3503 28.6018 28.9131C27.6342 30.8828 26.3261 33.0832 24.0295 33.671C20.4512 34.4651 18.3585 32.0354 17.677 28.7833L17.509 27.9463C20.458 28.6264 23.6065 29.1541 26.3625 27.4512C27.7763 26.5777 28.7184 25.1676 29.0686 23.5518C30.1166 18.1864 25.8657 13.4934 20.7717 12.5674C18.9524 12.2371 16.9428 12.0819 15.3264 13.1631C12.8235 14.8377 12.6512 18.1396 12.841 20.835C11.378 20.2193 9.96828 19.3311 9.44847 17.8057C8.18262 14.0899 10.4072 9.73172 14.0637 8.43951C17.3619 7.20396 21.0861 7.61226 24.2854 8.97858C28.088 10.6022 30.36 13.7783 31.7678 17.5889C34.9458 26.1919 34.9622 36.175 31.2346 44.586C29.3297 48.9597 26.6898 52.9751 23.4299 56.4581C22.1797 57.793 20.6655 59.0934 19.5168 60.5372C19.0592 61.1125 18.0181 63.5887 19.5237 63.5626C21.6961 63.5247 23.6592 60.9946 25.2239 59.5831C26.2616 58.6405 27.3452 57.7495 28.4709 56.9141C30.6144 55.3241 32.9118 53.952 35.3284 52.8194C41.8459 49.7032 47.6621 48.7764 54.8567 49.4874C58.1433 49.8491 61.3196 50.5253 64.3967 51.7774C68.1664 53.3112 71.1097 55.2334 72.7366 59.0616C74.991 64.3668 75.0201 74.3755 67.1106 74.5167Z" fill="black" style="fill:black;fill-opacity:1;"/>
<path d="M64.1735 40.9589C64.8033 41.0057 65.6068 40.9733 66.2506 40.9858C69.3289 41.0459 72.3755 40.6285 75.4283 40.4546L75.4237 37.4994C74.768 37.4893 73.2304 37.6646 72.5425 37.7249C71.1689 37.8441 69.7926 37.936 68.4153 38.0004C62.7999 38.2985 54.6737 37.6487 50.3176 33.7337C45.9563 29.814 44.1854 21.2614 43.8916 15.5754C43.8657 14.6582 43.763 13.7037 43.7364 12.7716C43.6762 10.6644 43.7603 8.68017 43.8438 6.58235C43.0371 6.65393 42.1717 6.62177 41.3493 6.66327C41.2673 7.14207 41.2095 7.75213 41.1957 8.24027C41.1554 9.66943 41.0099 11.2257 41.0306 12.6429C41.1371 19.9381 42.2724 29.203 47.2714 34.8574C51.3578 39.4798 58.3459 40.6776 64.1735 40.9589Z" fill="black" style="fill:black;fill-opacity:1;"/>
</svg>
