<svg width="269" height="77" viewBox="0 0 269 77" fill="none" xmlns="http://www.w3.org/2000/svg">
<path d="M1.04132 35.3496C29.694 37.2122 124.381 36.5099 153.034 35.319C159.808 35.0442 166.643 34.8305 173.418 34.2503C179.032 33.7618 184.769 32.8152 189.773 30.0976C190.841 29.5174 192.031 28.8151 193.069 27.9601C193.008 28.693 192.916 29.4564 192.763 30.2197C192.306 32.5404 191.634 34.7999 191.085 37.09C190.109 41.2733 189.01 45.8535 190.261 50.1284C190.902 52.3269 192.123 54.0979 193.648 55.7468C195.327 57.6094 197.249 59.472 196.608 62.2201C195.388 67.4721 188.766 69.9454 184.128 70.9836C178.757 72.1745 173.173 71.9607 167.742 71.6248C161.731 71.2584 155.75 70.8615 149.739 70.8309C136.74 70.8004 123.71 71.5638 110.711 72.1745C103.418 72.5103 96.1558 72.8462 88.863 73.2126C81.6616 73.5791 8.51727 73.7928 1.37698 74.831C0.614129 74.9531 0.858257 76.0524 1.56008 76.1134C8.33421 76.5409 81.0209 76.2356 87.8255 76.0524C94.6301 75.8692 101.435 75.6554 108.27 75.4417C121.849 75.0142 135.458 74.1898 149.067 74.2508C155.414 74.2508 161.731 74.7394 168.078 75.1363C173.753 75.4722 179.52 75.5944 185.104 74.373C190.2 73.2432 195.54 70.892 198.561 66.4034C199.873 64.4797 200.575 62.098 200.178 59.7774C199.965 58.5254 199.446 57.4262 198.775 56.388C200.361 56.9071 202.009 57.304 203.596 57.701C207.166 58.5254 210.828 59.2277 214.459 59.7163C217.999 60.2048 221.569 60.5407 225.139 60.7239C228.556 60.8766 232.096 61.0903 235.453 60.3881C240.701 59.3193 245.858 54.617 244.302 48.8765C247.414 50.4337 251.106 51.136 253.975 51.2582C257.88 51.4108 262.122 50.7696 265.143 48.0825C267.828 45.7008 268.988 41.7008 267.614 38.342C267.309 37.5481 266.699 37.2122 265.875 37.3343C263.19 37.7313 257.148 38.2198 257.453 33.9144C257.667 30.4945 261.542 28.3571 263.495 25.9143C266.089 22.6776 267.157 18.586 267.401 14.4333C268.255 12.479 268.56 10.2805 268.194 8.0515C267.859 6.09728 264.471 6.5553 264.716 8.50952C265.295 12.8455 262.213 17.0898 257.606 16.7844C252.235 16.4486 251.35 11.105 248.665 7.53241C243.173 0.234604 231.76 -1.07839 223.461 0.72316C218.365 1.82241 213.757 4.11252 209.821 7.50187C209.088 8.1431 209.149 9.05914 209.607 9.76144C209.607 9.85305 209.607 9.94465 209.607 10.0363C209.943 11.5325 210.919 12.5401 212.109 13.4561C213.299 14.3722 214.276 15.1661 214.795 16.3569C209.363 15.6546 203.962 14.8302 198.561 13.9752C185.44 11.9294 172.319 9.73091 159.076 8.7538C147.816 7.92936 135.458 7.47134 125.175 12.9676C120.811 15.3188 115.807 19.1967 115.715 24.6319C115.715 26.0975 116.02 27.5632 116.753 28.8457C116.753 30.2503 116.875 31.7159 117.211 32.9984C103.845 33.1511 90.5107 33.1511 77.1151 33.1205C73.6975 33.1205 4.4589 33.2121 1.04132 33.2121C-0.362323 33.2121 -0.331809 35.2885 1.04132 35.3801V35.3496ZM239.48 5.39498C241.83 6.31102 244.18 7.68508 245.705 9.73091C247.231 11.7767 247.963 14.2806 249.52 16.2959C252.235 19.8684 257.24 21.3952 261.481 19.8379C262.275 19.5631 262.976 19.1661 263.648 18.7081C263.556 18.9829 263.465 19.2577 263.373 19.5631C262.732 21.3952 261.756 23.1051 260.444 24.5403C259.07 26.0365 257.453 27.2579 256.202 28.8762C254.127 31.5632 253.242 35.4412 255.744 38.1588C258.247 40.9069 261.847 40.7847 265.234 40.2351C265.753 42.7695 263.709 45.3955 261.573 46.5558C258.857 48.052 255.47 48.2352 252.449 48.0215C249.794 47.8383 247.109 47.1665 244.698 46.0062C243.691 45.5176 242.837 44.9375 242.044 44.2962C241.311 43.0748 240.64 41.8535 240.274 40.4794C239.419 37.1511 240.274 33.6091 241.037 30.3724C241.83 27.1357 242.868 23.7769 242.562 20.4181C242.41 18.6776 242.013 16.876 241.189 15.3798C241.281 13.2729 240.182 11.105 238.046 9.79198C236.124 8.60112 233.835 8.11257 231.608 7.89882C228.251 7.56294 224.864 7.56294 221.477 7.41027C219.799 7.3492 218.151 7.25759 216.473 7.19653C223.369 3.25754 231.974 2.46364 239.45 5.39498H239.48ZM215.832 12.5706C214.856 11.8378 213.727 11.3187 212.659 10.708C218.822 10.9523 225.078 11.0439 231.211 11.563C233.103 11.7157 235.575 12.1432 236.948 13.5478C238.473 15.105 237.131 16.7234 235.483 17.3341C233.286 18.1585 230.876 17.9448 228.587 17.7615C225.291 17.5173 221.996 17.1814 218.731 16.7844C218.67 16.7844 218.609 16.7844 218.578 16.7844C218.243 15.0745 217.266 13.6394 215.832 12.5401V12.5706ZM119.499 23.6853C120.109 20.9372 122.612 18.9219 124.839 17.4562C135.122 10.6775 148.732 11.6241 160.449 12.5401C174.394 13.6394 188.186 16.0821 201.979 18.189C208.783 19.2272 215.618 20.2043 222.484 20.9066C227.397 21.4257 233.896 22.8608 238.413 20.0211C238.748 19.8074 239.023 19.5936 239.297 19.3494C239.297 19.899 239.236 20.4486 239.175 20.9982C238.87 23.6548 238.351 26.1891 237.68 28.7846C236.307 34.2503 235.331 39.8992 238.26 45.0596C239.48 47.197 241.555 49.5788 240.64 52.2047C239.725 54.8613 237.039 56.2659 234.446 56.7849C231.516 57.3651 228.404 57.1514 225.413 57.0292C222.148 56.9071 218.883 56.6628 215.618 56.3269C211.957 55.93 208.295 55.4414 204.664 54.7697C201.887 54.2506 199.08 53.6093 196.273 53.304C194.472 51.2276 193.404 49.0597 193.343 46.2505C193.282 43.6245 193.892 41.0901 194.503 38.5557C195.449 34.5251 196.608 29.4258 195.235 25.2731C195.266 25.1815 195.296 25.1204 195.327 25.0288C196.15 22.7998 195.144 20.5402 193.191 19.2883C191.024 17.9142 188.339 17.7615 185.837 17.731C182.877 17.6699 179.947 17.8837 177.018 18.2806C164.965 19.899 153.614 24.5097 141.774 27.1662C135.916 28.4792 129.843 29.3342 123.802 28.8457C120.872 28.6014 118.797 26.8914 119.499 23.7158V23.6853ZM119.163 31.2884C121.147 32.4488 123.619 32.5404 125.877 32.6014C137.624 32.9373 148.976 29.151 160.113 25.9143C165.636 24.296 171.22 22.7692 176.927 21.9753C179.886 21.5479 182.846 21.3341 185.837 21.3646C187.393 21.3646 191.36 21.2425 192.123 23.1357C192.885 25.0899 187.912 27.3189 186.6 27.9296C184.006 29.1205 181.199 29.8228 178.391 30.3113C172.38 31.3495 166.186 31.4106 160.113 31.7159C146.718 32.3877 133.322 32.7541 119.926 32.9373C119.682 32.3877 119.408 31.8381 119.163 31.2884Z" fill="#532C3D" style="fill:#532C3D;fill:color(display-p3 0.3255 0.1725 0.2392);fill-opacity:1;"/>
<path d="M124.778 40.6933C128.501 40.9681 132.224 41.0902 135.946 41.1513C139.669 41.1818 143.392 41.1208 147.114 40.907C148.976 40.8154 150.837 40.6933 152.698 40.5406C154.194 40.4185 155.75 40.4795 157.123 39.8383C157.52 39.6551 157.398 38.9833 157.001 38.8917C155.414 38.4948 153.614 38.9528 151.997 39.0749C150.135 39.2276 148.274 39.3192 146.413 39.4108C142.934 39.594 139.425 39.6551 135.946 39.6856C132.468 39.6856 128.958 39.594 125.48 39.4413C123.619 39.3497 121.757 39.2581 119.896 39.1055C118.309 38.9833 116.57 38.7085 115.014 39.1665C115.014 39.1665 114.983 39.2276 115.014 39.2276C116.265 39.9299 117.79 40.0215 119.194 40.1742C121.055 40.3574 122.917 40.5101 124.778 40.6627V40.6933Z" fill="#532C3D" style="fill:#532C3D;fill:color(display-p3 0.3255 0.1725 0.2392);fill-opacity:1;"/>
<path d="M169.42 38.0061C167.681 37.4565 165.575 38.281 163.867 38.6474C163.47 38.739 163.561 39.4107 163.958 39.3802C165.728 39.2275 167.956 39.3802 169.451 38.3115C169.573 38.2199 169.542 38.0672 169.42 38.0061Z" fill="#532C3D" style="fill:#532C3D;fill:color(display-p3 0.3255 0.1725 0.2392);fill-opacity:1;"/>
<path d="M186.05 34.9526C184.708 35.2274 183.396 35.5328 182.053 35.8076C179.703 36.2656 176.835 36.2656 174.699 37.3648C174.485 37.4565 174.547 37.7923 174.76 37.8534C176.927 38.3725 179.581 37.6091 181.748 37.2427C183.09 37.029 184.433 36.7847 185.776 36.5099C186.722 36.2961 187.301 36.3572 187.759 35.4412C187.79 35.3801 187.79 35.258 187.729 35.1969C187.088 34.6778 186.905 34.7389 186.05 34.9221V34.9526Z" fill="#532C3D" style="fill:#532C3D;fill:color(display-p3 0.3255 0.1725 0.2392);fill-opacity:1;"/>
<path d="M185.348 41.1512C184.372 40.51 183.029 41.0291 181.992 41.2428C180.771 41.4566 179.49 41.365 178.574 42.281C178.574 42.281 178.574 42.3421 178.574 42.3726C179.581 43.2581 180.924 42.9833 182.205 42.8001C183.334 42.6474 184.86 42.5864 185.44 41.4871C185.501 41.365 185.44 41.2428 185.348 41.1818V41.1512Z" fill="#532C3D" style="fill:#532C3D;fill:color(display-p3 0.3255 0.1725 0.2392);fill-opacity:1;"/>
<path d="M182.846 46.5559C183.548 46.4643 184.402 46.3116 184.799 45.6704C184.891 45.5177 184.83 45.2735 184.677 45.1819C184.097 44.846 183.304 45.0292 182.663 45.1513C181.809 45.304 180.985 45.4261 180.131 45.5788C179.673 45.6704 179.673 46.4032 180.131 46.4949C181.046 46.6475 181.931 46.6781 182.846 46.5559Z" fill="#532C3D" style="fill:#532C3D;fill:color(display-p3 0.3255 0.1725 0.2392);fill-opacity:1;"/>
<path d="M179.947 49.7926C181.565 50.159 183.518 50.556 185.074 49.762C185.196 49.701 185.196 49.4872 185.074 49.3956C183.518 48.6017 181.565 48.9987 179.947 49.3651C179.734 49.4262 179.734 49.7621 179.947 49.8231V49.7926Z" fill="#532C3D" style="fill:#532C3D;fill:color(display-p3 0.3255 0.1725 0.2392);fill-opacity:1;"/>
<path d="M188.4 54.1285C186.844 53.9147 185.471 54.2812 183.914 54.4033C182.236 54.5254 180.527 54.4949 178.849 54.6476C178.574 54.6476 178.361 55.1056 178.696 55.2583C181.534 56.6018 186.05 56.9071 188.583 54.8002C188.797 54.617 188.705 54.159 188.4 54.1285Z" fill="#532C3D" style="fill:#532C3D;fill:color(display-p3 0.3255 0.1725 0.2392);fill-opacity:1;"/>
<path d="M190.048 59.2889C188.766 58.5255 187.332 58.8614 185.928 58.9836C184.281 59.1362 182.694 59.2584 181.168 59.8691C180.985 59.9301 180.924 60.2355 181.168 60.2966C182.846 60.6935 184.555 60.5714 186.264 60.4798C187.637 60.4187 188.98 60.4798 190.109 59.5943C190.2 59.5027 190.17 59.35 190.078 59.2889H190.048Z" fill="#532C3D" style="fill:#532C3D;fill:color(display-p3 0.3255 0.1725 0.2392);fill-opacity:1;"/>
<path d="M182.389 64.4797C185.104 65.3958 189.407 64.9378 191.787 63.2889C192.092 63.0751 191.97 62.6171 191.604 62.6171C189.956 62.5255 188.461 63.0446 186.874 63.35C185.348 63.6553 183.823 63.8385 182.389 64.4492V64.4797Z" fill="#532C3D" style="fill:#532C3D;fill:color(display-p3 0.3255 0.1725 0.2392);fill-opacity:1;"/>
<path d="M161.425 69.2127C162.127 69.3348 162.89 69.5485 163.47 68.9684C163.561 68.8768 163.592 68.7241 163.531 68.602C163.134 67.9302 162.341 67.9302 161.639 67.8386C160.754 67.747 159.808 67.6554 158.954 67.8997C158.71 67.9607 158.679 68.2966 158.893 68.4188C159.656 68.8768 160.602 69.06 161.456 69.2127H161.425Z" fill="#532C3D" style="fill:#532C3D;fill:color(display-p3 0.3255 0.1725 0.2392);fill-opacity:1;"/>
<path d="M168.169 68.9989C168.169 68.9989 168.078 69.1821 168.169 69.2127C170 69.9455 171.983 69.7623 173.875 69.518C175.37 69.3043 177.781 69.2737 178.666 67.8691C178.788 67.6859 178.666 67.5027 178.483 67.4111C177.14 66.8615 175.187 67.8081 173.784 68.0523C171.922 68.3577 169.939 68.3577 168.139 68.9989H168.169Z" fill="#532C3D" style="fill:#532C3D;fill:color(display-p3 0.3255 0.1725 0.2392);fill-opacity:1;"/>
<path d="M123.435 23.5327C124.87 22.7694 125.999 21.3342 127.28 20.3571C128.714 19.2884 130.24 18.3724 131.857 17.609C135.336 15.9601 138.876 15.4716 142.659 15.1357C143.788 15.0441 143.819 13.3341 142.659 13.3341C138.815 13.3036 134.848 14.6471 131.461 16.3571C129.752 17.2426 128.104 18.2808 126.609 19.5021C125.327 20.5403 123.741 21.7617 123.13 23.319C123.069 23.4717 123.283 23.5938 123.405 23.5327H123.435Z" fill="#532C3D" style="fill:#532C3D;fill:color(display-p3 0.3255 0.1725 0.2392);fill-opacity:1;"/>
<path d="M136.831 18.6166C137.014 18.5555 136.984 18.2502 136.77 18.2807C132.895 18.6471 129.081 20.2349 126.395 23.1357C125.602 23.9907 126.883 25.2732 127.677 24.4182C130.24 21.6395 133.108 19.6242 136.801 18.6166H136.831Z" fill="#532C3D" style="fill:#532C3D;fill:color(display-p3 0.3255 0.1725 0.2392);fill-opacity:1;"/>
<path d="M135.733 22.0975C133.047 22.5556 130.576 23.6853 128.318 25.2426C127.463 25.8228 128.257 27.2274 129.142 26.6472C131.369 25.2426 133.688 23.9296 135.916 22.525C136.129 22.3723 135.977 22.067 135.733 22.1281V22.0975Z" fill="#532C3D" style="fill:#532C3D;fill:color(display-p3 0.3255 0.1725 0.2392);fill-opacity:1;"/>
<path d="M134.878 25.1206C133.932 25.3648 132.895 25.5786 132.254 26.3725C132.101 26.5557 132.132 26.861 132.407 26.9221C133.505 27.258 134.726 26.7084 135.702 26.2504C135.855 26.1893 137.472 25.5481 137.045 25.09C136.557 24.5709 135.458 24.9679 134.848 25.09L134.878 25.1206Z" fill="#532C3D" style="fill:#532C3D;fill:color(display-p3 0.3255 0.1725 0.2392);fill-opacity:1;"/>
<path d="M166.369 27.2579C169.542 26.8305 172.716 26.2503 175.889 25.9755C177.323 25.8533 178.788 25.7312 180.222 25.7312C181.412 25.7312 182.602 25.9449 183.701 25.4259C183.853 25.3342 183.853 25.09 183.701 24.9984C182.602 24.4487 181.443 24.693 180.222 24.7541C178.544 24.8457 176.866 24.9678 175.218 25.151C172.166 25.4869 169.176 25.9755 166.277 26.9526C166.064 27.0137 166.155 27.319 166.369 27.2885V27.2579Z" fill="#532C3D" style="fill:#532C3D;fill:color(display-p3 0.3255 0.1725 0.2392);fill-opacity:1;"/>
<path d="M175.706 27.5023C175.401 27.5939 175.553 27.9908 175.828 27.9603C176.408 27.8687 177.049 27.9297 177.659 27.9603C178.117 27.9603 178.513 27.9908 178.91 27.716C178.971 27.6855 179.002 27.5939 178.91 27.5328C178.117 26.7084 176.621 27.2885 175.676 27.5328L175.706 27.5023Z" fill="#532C3D" style="fill:#532C3D;fill:color(display-p3 0.3255 0.1725 0.2392);fill-opacity:1;"/>
<path d="M200.911 22.7999C202.162 23.2579 203.443 23.6549 204.725 24.0213C207.502 24.8152 210.309 25.487 213.147 26.0061C215.832 26.4946 218.517 26.861 221.233 27.1053C222.545 27.2274 223.888 27.2885 225.23 27.3496C226.573 27.4107 228.068 27.6244 229.35 27.1664C229.777 27.0137 229.777 26.4335 229.35 26.2809C228.16 25.8534 226.817 26.0366 225.566 26.0061C224.223 25.9755 222.911 25.8839 221.569 25.7923C218.639 25.5786 215.71 25.2122 212.842 24.6931C210.217 24.2045 207.624 23.6243 205.061 22.8915C203.779 22.5251 202.497 22.1281 201.246 21.7312C200.117 21.3953 199.11 20.8151 197.92 21.0289C197.829 21.0289 197.798 21.1816 197.859 21.2426C198.592 22.1587 199.843 22.4335 200.941 22.8304L200.911 22.7999Z" fill="#532C3D" style="fill:#532C3D;fill:color(display-p3 0.3255 0.1725 0.2392);fill-opacity:1;"/>
<path d="M232.096 27.1663C232.371 27.0747 232.615 27.0441 232.889 27.0136C233.164 27.0136 233.347 26.922 233.53 26.7998C233.622 26.7388 233.652 26.6166 233.591 26.525C233.164 25.8838 232.34 26.1586 231.821 26.525C231.547 26.7388 231.699 27.2884 232.066 27.1357L232.096 27.1663Z" fill="#532C3D" style="fill:#532C3D;fill:color(display-p3 0.3255 0.1725 0.2392);fill-opacity:1;"/>
<path d="M222.301 30.3725C222.301 30.3725 222.271 30.4335 222.301 30.4641C223.796 31.258 225.749 31.0442 227.397 31.0442C229.045 31.0442 231.15 31.4717 232.645 30.6778C232.859 30.5862 232.859 30.2503 232.645 30.1587C231.15 29.3648 229.075 29.7923 227.397 29.7923C225.749 29.7923 223.796 29.5786 222.301 30.3725Z" fill="#532C3D" style="fill:#532C3D;fill:color(display-p3 0.3255 0.1725 0.2392);fill-opacity:1;"/>
<path d="M231.73 34.3725C230.845 33.7923 229.624 34.0061 228.587 34.0061C227.58 34.0061 226.451 33.7923 225.535 34.2198C225.413 34.2809 225.383 34.4641 225.505 34.5557C226.298 35.258 227.58 35.2885 228.587 35.3801C229.685 35.4717 230.906 35.6244 231.791 34.9221C231.974 34.7694 231.882 34.4946 231.73 34.3725Z" fill="#532C3D" style="fill:#532C3D;fill:color(display-p3 0.3255 0.1725 0.2392);fill-opacity:1;"/>
<path d="M225.139 38.7389C226.024 39.4718 228.465 40.0825 229.38 39.1664C229.441 39.1053 229.472 38.9527 229.411 38.8611C228.617 37.8229 226.146 38.0366 225.139 38.6473C225.139 38.6473 225.108 38.7084 225.139 38.7389Z" fill="#532C3D" style="fill:#532C3D;fill:color(display-p3 0.3255 0.1725 0.2392);fill-opacity:1;"/>
<path d="M228.221 44.1742C225.993 44.2963 223.796 44.3574 221.599 44.5406C221.385 44.5406 221.324 44.8765 221.538 44.9376C223.766 45.3345 225.932 45.4872 228.221 45.4261C230.204 45.365 232.523 45.5788 234.354 44.7238C234.69 44.5711 234.598 43.991 234.232 43.8994C232.34 43.5024 230.143 44.0826 228.19 44.1742H228.221Z" fill="#532C3D" style="fill:#532C3D;fill:color(display-p3 0.3255 0.1725 0.2392);fill-opacity:1;"/>
<path d="M234.507 49.7926C233.5 49.3651 232.432 49.5178 231.364 49.4567C229.991 49.4261 228.617 49.3956 227.275 49.2735C226.848 49.2429 226.756 49.9147 227.183 50.0063C229.319 50.4338 232.493 51.3193 234.537 50.2506C234.72 50.159 234.72 49.8536 234.537 49.762L234.507 49.7926Z" fill="#532C3D" style="fill:#532C3D;fill:color(display-p3 0.3255 0.1725 0.2392);fill-opacity:1;"/>
<path d="M207.654 51.4108C206.434 51.2276 205.335 51.0139 204.115 51.136C203.932 51.136 203.871 51.3803 204.023 51.4719C205.091 52.2047 206.251 52.4796 207.532 52.7238C208.387 52.8765 209.607 53.3345 210.279 52.6017C210.37 52.5101 210.401 52.3574 210.34 52.2353C209.851 51.3803 208.539 51.533 207.685 51.4108H207.654Z" fill="#532C3D" style="fill:#532C3D;fill:color(display-p3 0.3255 0.1725 0.2392);fill-opacity:1;"/>
<path d="M229.869 53.8842C228.251 53.8232 226.604 53.7316 224.986 53.6399C221.508 53.4567 218.029 53.0903 214.52 53.243C214.306 53.243 214.245 53.5483 214.459 53.6094C218.121 54.5865 221.904 54.8308 225.658 55.0445C227.488 55.1667 229.319 55.2583 231.15 55.2888C232.493 55.2888 233.866 55.2888 234.903 54.3728C235.178 54.1285 234.964 53.6094 234.598 53.6399C233.012 53.6705 231.455 53.9453 229.869 53.8842Z" fill="#532C3D" style="fill:#532C3D;fill:color(display-p3 0.3255 0.1725 0.2392);fill-opacity:1;"/>
<path d="M253.029 24.6319C253.334 24.6319 253.395 24.235 253.181 24.0823C252.327 23.5022 251.381 23.1968 250.527 22.6472C249.672 22.1281 248.94 21.4563 248.085 20.9372C247.933 20.8456 247.78 21.0288 247.872 21.151C248.757 22.8915 251.106 24.5403 253.059 24.6319H253.029Z" fill="#532C3D" style="fill:#532C3D;fill:color(display-p3 0.3255 0.1725 0.2392);fill-opacity:1;"/>
<path d="M249.642 27.6549C250.313 27.9602 251.076 28.3267 251.778 27.9602C251.9 27.8992 251.961 27.716 251.93 27.5938C251.686 26.8305 250.923 26.5556 250.221 26.2808C249.459 25.9755 248.635 25.548 247.811 25.7617C247.597 25.8228 247.475 26.0976 247.597 26.2808C248.024 27.0137 248.909 27.319 249.642 27.6549Z" fill="#532C3D" style="fill:#532C3D;fill:color(display-p3 0.3255 0.1725 0.2392);fill-opacity:1;"/>
<path d="M248.604 29.7923C248.421 29.7618 248.238 30.006 248.391 30.1282C248.726 30.4335 249.001 30.7694 249.428 30.9831C249.703 31.1053 250.191 31.3801 250.405 30.9831C250.618 30.5862 250.16 30.3114 249.886 30.1892C249.489 29.945 249.031 29.9144 248.574 29.7923H248.604Z" fill="#532C3D" style="fill:#532C3D;fill:color(display-p3 0.3255 0.1725 0.2392);fill-opacity:1;"/>
<path d="M248.787 36.4794C249.855 36.9069 251.076 37.2122 252.205 36.8458C252.968 36.6015 252.937 35.5939 252.205 35.3496C251.32 35.0137 250.343 34.9832 249.397 34.7084C248.543 34.4641 247.811 34.342 246.926 34.2809C246.834 34.2809 246.743 34.3725 246.773 34.4641C247.2 35.4717 247.75 36.0519 248.787 36.4794Z" fill="#532C3D" style="fill:#532C3D;fill:color(display-p3 0.3255 0.1725 0.2392);fill-opacity:1;"/>
<path d="M247.872 41.0902C247.689 41.0902 247.658 41.3345 247.78 41.4261C248.879 42.0673 249.672 42.5864 250.954 42.8307C251.778 43.0139 252.876 43.4109 253.548 42.7391C253.67 42.6169 253.67 42.4337 253.609 42.3116C253.12 41.5177 251.991 41.6093 251.137 41.4261C250.038 41.2123 248.97 41.2123 247.872 41.0902Z" fill="#532C3D" style="fill:#532C3D;fill:color(display-p3 0.3255 0.1725 0.2392);fill-opacity:1;"/>
<path d="M253.242 44.2658C254.432 44.7238 255.439 45.0902 256.721 45.0902C257.209 45.0902 258.491 45.1513 258.491 44.3574C258.491 42.9833 254.066 43.8688 253.303 43.9299C253.12 43.9299 253.09 44.2047 253.273 44.2658H253.242Z" fill="#532C3D" style="fill:#532C3D;fill:color(display-p3 0.3255 0.1725 0.2392);fill-opacity:1;"/>
</svg>
