<svg width="91" height="91" viewBox="0 0 91 91" fill="none" xmlns="http://www.w3.org/2000/svg">
<rect width="90.4" height="90.4" rx="45.2" fill="black" fill-opacity="0.3" style="fill:black;fill-opacity:0.3;"/>
<path d="M36.25 62.15L62.6167 45.2L36.25 28.25V62.15ZM45.6667 82.8667C40.4561 82.8667 35.5594 81.8779 30.9767 79.9004C26.3939 77.9229 22.4075 75.2392 19.0175 71.8492C15.6275 68.4592 12.9437 64.4728 10.9662 59.89C8.98875 55.3072 8 50.4105 8 45.2C8 39.9894 8.98875 35.0928 10.9662 30.51C12.9437 25.9272 15.6275 21.9408 19.0175 18.5508C22.4075 15.1608 26.3939 12.4771 30.9767 10.4996C35.5594 8.52208 40.4561 7.53333 45.6667 7.53333C50.8772 7.53333 55.7739 8.52208 60.3567 10.4996C64.9394 12.4771 68.9258 15.1608 72.3158 18.5508C75.7058 21.9408 78.3896 25.9272 80.3671 30.51C82.3446 35.0928 83.3333 39.9894 83.3333 45.2C83.3333 50.4105 82.3446 55.3072 80.3671 59.89C78.3896 64.4728 75.7058 68.4592 72.3158 71.8492C68.9258 75.2392 64.9394 77.9229 60.3567 79.9004C55.7739 81.8779 50.8772 82.8667 45.6667 82.8667ZM45.6667 75.3333C54.0789 75.3333 61.2042 72.4142 67.0425 66.5758C72.8808 60.7375 75.8 53.6122 75.8 45.2C75.8 36.7878 72.8808 29.6625 67.0425 23.8242C61.2042 17.9858 54.0789 15.0667 45.6667 15.0667C37.2544 15.0667 30.1292 17.9858 24.2908 23.8242C18.4525 29.6625 15.5333 36.7878 15.5333 45.2C15.5333 53.6122 18.4525 60.7375 24.2908 66.5758C30.1292 72.4142 37.2544 75.3333 45.6667 75.3333Z" fill="white" style="fill:white;fill-opacity:1;"/>
</svg>
