<svg width="111" height="144" viewBox="0 0 111 144" fill="none" xmlns="http://www.w3.org/2000/svg">
<path d="M102.75 1.5H8.25V90.5L59.75 133.5L102.75 90.5V1.5Z" fill="#532C3D" style="fill:#532C3D;fill:color(display-p3 0.3255 0.1725 0.2392);fill-opacity:1;"/>
<path d="M109.5 1.5H1.5V95.8939L60.3571 141.5L109.5 95.8939V1.5Z" stroke="#532C3D" style="stroke:#532C3D;stroke:color(display-p3 0.3255 0.1725 0.2392);stroke-opacity:1;" stroke-width="3"/>
<path d="M41.2772 33.9584C51.5062 33.9584 57.7807 40.3384 57.7807 52.2547C57.7807 65.0146 50.1353 72.1327 38.9572 72.1327C35.0554 72.1327 31.3118 71.2364 28.7282 69.6018L31.8918 63.3273C33.8954 64.6982 36.2681 65.1728 38.799 65.1728C44.9153 65.1728 48.9226 61.5346 49.1862 54.4165C47.0244 56.5783 43.8608 57.7383 40.0117 57.7383C32.8936 57.7383 27.3045 53.2038 27.3045 46.2438C27.3045 38.7038 33.4736 33.9584 41.2772 33.9584ZM41.9099 51.3583C45.6535 51.3583 48.2371 49.0383 48.2371 45.822C48.2371 42.6584 45.8644 40.3384 41.8044 40.3384C38.1663 40.3384 35.6354 42.4475 35.6354 45.822C35.6354 49.1965 38.1136 51.3583 41.9099 51.3583ZM74.8494 33.9584C85.0784 33.9584 91.3529 40.3384 91.3529 52.2547C91.3529 65.0146 83.7075 72.1327 72.5294 72.1327C68.6276 72.1327 64.884 71.2364 62.3004 69.6018L65.464 63.3273C67.4676 64.6982 69.8403 65.1728 72.3712 65.1728C78.4876 65.1728 82.4948 61.5346 82.7584 54.4165C80.5966 56.5783 77.433 57.7383 73.584 57.7383C66.4658 57.7383 60.8768 53.2038 60.8768 46.2438C60.8768 38.7038 67.0458 33.9584 74.8494 33.9584ZM75.4821 51.3583C79.2257 51.3583 81.8094 49.0383 81.8094 45.822C81.8094 42.6584 79.4366 40.3384 75.3767 40.3384C71.7385 40.3384 69.2076 42.4475 69.2076 45.822C69.2076 49.1965 71.6858 51.3583 75.4821 51.3583Z" fill="white" style="fill:white;fill-opacity:1;"/>
<path d="M25.201 32.4837C25.201 34.5212 23.712 36.2845 20.6361 36.6567V38.851H18.6769V36.7155C16.7373 36.598 14.8761 35.9906 13.7986 35.1482L14.8761 32.758C15.8557 33.4829 17.2663 34.0118 18.6769 34.149V30.8771C16.5022 30.3482 14.0729 29.6233 14.0729 26.8216C14.0729 24.7449 15.5814 22.962 18.6769 22.6094V20.4347H20.6361V22.5702C22.1055 22.6878 23.5357 23.0796 24.6133 23.7653L23.6337 26.1751C22.6345 25.6069 21.6157 25.2739 20.6361 25.1563V28.4869C22.8108 28.9963 25.201 29.7212 25.201 32.4837ZM17.2271 26.6649C17.2271 27.3506 17.8149 27.7229 18.6769 27.9971V25.2151C17.6386 25.4502 17.2271 26.0184 17.2271 26.6649ZM20.6361 34.0706C21.6157 33.8551 22.0467 33.3457 22.0467 32.7188C22.0467 32.0331 21.4786 31.6608 20.6361 31.3669V34.0706Z" fill="white" style="fill:white;fill-opacity:1;"/>
<path d="M32.0041 90.5H30.4368L28.8358 88.205C28.7351 88.2162 28.6343 88.2162 28.5335 88.2162H26.7647V90.5H25.3093V82.6633H28.5335C30.5935 82.6633 31.8698 83.7156 31.8698 85.4509C31.8698 86.6376 31.2652 87.5108 30.2017 87.9251L32.0041 90.5ZM30.4032 85.4509C30.4032 84.4657 29.7426 83.8948 28.4664 83.8948H26.7647V87.0183H28.4664C29.7426 87.0183 30.4032 86.4361 30.4032 85.4509ZM38.9838 87.5444C38.9838 87.6564 38.9726 87.8243 38.9614 87.9587H34.2705C34.4385 88.8319 35.1662 89.3917 36.2073 89.3917C36.8791 89.3917 37.4052 89.179 37.8307 88.7423L38.5807 89.6044C38.0434 90.2425 37.2037 90.5784 36.1737 90.5784C34.1698 90.5784 32.8711 89.2909 32.8711 87.5108C32.8711 85.7308 34.181 84.4545 35.961 84.4545C37.7075 84.4545 38.9838 85.6748 38.9838 87.5444ZM35.961 85.5741C35.0542 85.5741 34.3937 86.1562 34.2593 87.0294H37.6515C37.5396 86.1674 36.8791 85.5741 35.961 85.5741ZM42.7574 83.2454C42.1752 83.2454 41.873 83.5701 41.873 84.2082V84.5665H43.5187V85.686H41.9177V90.5H40.5183V85.686H39.5331V84.5665H40.5183V84.1858C40.5183 82.932 41.2684 82.1147 42.6566 82.1147C43.138 82.1147 43.6082 82.2155 43.9217 82.4394L43.5299 83.4917C43.3172 83.3462 43.0485 83.2454 42.7574 83.2454ZM48.8492 84.5217H50.2486V90.5H48.9164V89.7387C48.4686 90.2873 47.7633 90.5784 46.9908 90.5784C45.457 90.5784 44.4159 89.7387 44.4159 87.9363V84.5217H45.8153V87.7459C45.8153 88.8319 46.3303 89.3469 47.2147 89.3469C48.1887 89.3469 48.8492 88.7423 48.8492 87.5444V84.5217ZM55.4731 84.4545C56.9061 84.4545 57.9697 85.2718 57.9697 87.0742V90.5H56.5702V87.2534C56.5702 86.1898 56.0441 85.6748 55.1484 85.6748C54.1521 85.6748 53.4803 86.2794 53.4803 87.4773V90.5H52.0809V84.5217H53.4132V85.2942C53.8722 84.7456 54.5999 84.4545 55.4731 84.4545ZM64.2553 82.1931H65.6547V90.5H64.3113V89.7275C63.8411 90.2985 63.147 90.5784 62.3297 90.5784C60.5944 90.5784 59.307 89.3693 59.307 87.5108C59.307 85.6524 60.5944 84.4545 62.3297 84.4545C63.1022 84.4545 63.7851 84.712 64.2553 85.2606V82.1931ZM62.4977 89.3805C63.5052 89.3805 64.2777 88.6528 64.2777 87.5108C64.2777 86.3689 63.5052 85.6412 62.4977 85.6412C61.4901 85.6412 60.7176 86.3689 60.7176 87.5108C60.7176 88.6528 61.4901 89.3805 62.4977 89.3805ZM69.7693 84.4545C71.4934 84.4545 72.4898 85.2718 72.4898 86.9959V90.5H71.1687V89.7723C70.8328 90.2873 70.1835 90.5784 69.2879 90.5784C67.9221 90.5784 67.06 89.8283 67.06 88.7871C67.06 87.7907 67.7317 87.0071 69.5454 87.0071H71.0903V86.9175C71.0903 86.1002 70.5977 85.6188 69.6014 85.6188C68.9296 85.6188 68.2355 85.8427 67.7877 86.2122L67.2391 85.1934C67.8773 84.7008 68.8065 84.4545 69.7693 84.4545ZM69.579 89.5596C70.2619 89.5596 70.8552 89.2461 71.0903 88.6304V87.9363H69.6461C68.6945 87.9363 68.437 88.2945 68.437 88.7311C68.437 89.2349 68.8625 89.5596 69.579 89.5596ZM77.5995 84.4545C79.346 84.4545 80.6335 85.6524 80.6335 87.5108C80.6335 89.3693 79.346 90.5784 77.5995 90.5784C76.7823 90.5784 76.0882 90.2985 75.618 89.7275V90.5H74.2857V82.1931H75.6851V85.2494C76.1665 84.712 76.8383 84.4545 77.5995 84.4545ZM77.4428 89.3805C78.4504 89.3805 79.2117 88.6528 79.2117 87.5108C79.2117 86.3689 78.4504 85.6412 77.4428 85.6412C76.4352 85.6412 75.6628 86.3689 75.6628 87.5108C75.6628 88.6528 76.4352 89.3805 77.4428 89.3805ZM81.9607 90.5V82.1931H83.3601V90.5H81.9607ZM90.8169 87.5444C90.8169 87.6564 90.8057 87.8243 90.7945 87.9587H86.1036C86.2716 88.8319 86.9993 89.3917 88.0404 89.3917C88.7121 89.3917 89.2383 89.179 89.6637 88.7423L90.4138 89.6044C89.8765 90.2425 89.0368 90.5784 88.0068 90.5784C86.0029 90.5784 84.7042 89.2909 84.7042 87.5108C84.7042 85.7308 86.0141 84.4545 87.7941 84.4545C89.5406 84.4545 90.8169 85.6748 90.8169 87.5444ZM87.7941 85.5741C86.8873 85.5741 86.2268 86.1562 86.0924 87.0294H89.4846C89.3727 86.1674 88.7121 85.5741 87.7941 85.5741ZM36.3789 100.5V92.6633H39.8047C42.346 92.6633 44.0813 94.2306 44.0813 96.5816C44.0813 98.9327 42.346 100.5 39.8047 100.5H36.3789ZM37.8343 99.2685H39.7375C41.484 99.2685 42.6147 98.205 42.6147 96.5816C42.6147 94.9583 41.484 93.8948 39.7375 93.8948H37.8343V99.2685ZM51.1139 97.5444C51.1139 97.6564 51.1027 97.8243 51.0915 97.9587H46.4006C46.5686 98.8319 47.2963 99.3917 48.3374 99.3917C49.0092 99.3917 49.5353 99.179 49.9608 98.7423L50.7108 99.6044C50.1735 100.243 49.3338 100.578 48.3038 100.578C46.2999 100.578 45.0012 99.2909 45.0012 97.5108C45.0012 95.7308 46.3111 94.4545 48.0911 94.4545C49.8376 94.4545 51.1139 95.6748 51.1139 97.5444ZM48.0911 95.5741C47.1843 95.5741 46.5238 96.1562 46.3894 97.0294H49.7816C49.6697 96.1674 49.0092 95.5741 48.0911 95.5741ZM55.7719 94.4545C57.5184 94.4545 58.8059 95.6636 58.8059 97.5108C58.8059 99.3693 57.5184 100.578 55.7719 100.578C55.0106 100.578 54.3389 100.321 53.8575 99.7723V102.672H52.4581V94.5217H53.7904V95.3054C54.2606 94.7344 54.9547 94.4545 55.7719 94.4545ZM55.6152 99.3805C56.6228 99.3805 57.3841 98.6528 57.3841 97.5108C57.3841 96.3689 56.6228 95.6412 55.6152 95.6412C54.6076 95.6412 53.8351 96.3689 53.8351 97.5108C53.8351 98.6528 54.6076 99.3805 55.6152 99.3805ZM62.8199 100.578C60.9839 100.578 59.6404 99.3021 59.6404 97.5108C59.6404 95.7196 60.9839 94.4545 62.8199 94.4545C64.6783 94.4545 66.0106 95.7196 66.0106 97.5108C66.0106 99.3021 64.6783 100.578 62.8199 100.578ZM62.8199 99.3805C63.8387 99.3805 64.6 98.6528 64.6 97.5108C64.6 96.3689 63.8387 95.6412 62.8199 95.6412C61.8123 95.6412 61.0511 96.3689 61.0511 97.5108C61.0511 98.6528 61.8123 99.3805 62.8199 99.3805ZM69.196 100.578C68.1996 100.578 67.2032 100.287 66.6659 99.9066L67.2032 98.8431C67.7294 99.1901 68.5355 99.4364 69.2856 99.4364C70.17 99.4364 70.5394 99.1901 70.5394 98.7759C70.5394 97.634 66.845 98.7087 66.845 96.3241C66.845 95.1934 67.8638 94.4545 69.4759 94.4545C70.2708 94.4545 71.1776 94.6448 71.715 94.9695L71.1776 96.0331C70.6066 95.6972 70.0357 95.5852 69.4647 95.5852C68.6138 95.5852 68.2108 95.8651 68.2108 96.257C68.2108 97.4661 71.9053 96.3913 71.9053 98.7311C71.9053 99.8507 70.8753 100.578 69.196 100.578ZM73.8157 93.5365C73.3008 93.5365 72.9201 93.1671 72.9201 92.6969C72.9201 92.2266 73.3008 91.8572 73.8157 91.8572C74.3307 91.8572 74.7114 92.2043 74.7114 92.6633C74.7114 93.1559 74.3419 93.5365 73.8157 93.5365ZM73.1104 100.5V94.5217H74.5099V100.5H73.1104ZM79.5485 99.179L79.9403 100.175C79.6044 100.444 79.1006 100.578 78.5969 100.578C77.287 100.578 76.5369 99.8843 76.5369 98.5632V95.686H75.5517V94.5665H76.5369V93.2006H77.9363V94.5665H79.5373V95.686H77.9363V98.5296C77.9363 99.1118 78.2274 99.4252 78.7648 99.4252C79.0559 99.4252 79.3357 99.3469 79.5485 99.179Z" fill="white" style="fill:white;fill-opacity:1;"/>
</svg>
