<svg width="131" height="23" viewBox="0 0 131 23" fill="none" xmlns="http://www.w3.org/2000/svg">
<path fill-rule="evenodd" clip-rule="evenodd" d="M64.8877 2.85058C70.05 2.32704 76.9692 3.92507 79.0332 9.30175C79.1578 9.28167 79.3039 9.25785 79.4258 9.24902C90.6511 8.43027 101.999 8.0226 112.775 11.9375C114.739 12.6509 120.989 15.1734 121 17.7197C120.694 21.3192 114.214 16.5108 112.847 15.7998C102.173 10.2512 91.3364 9.91894 79.5586 10.2256C79.9231 12.9591 79.5565 15.6466 76.7871 17.1289C75.5627 17.7843 74.1376 17.6086 72.8545 17.1777C72.753 17.0837 72.6545 16.9862 72.5605 16.8848C71.3368 15.5641 71.5628 12.9223 73.3613 13.0166C74.0388 13.3672 74.1775 13.8308 74.0518 14.5644C73.713 14.9535 73.3678 14.9855 72.8398 15.1758C72.7311 15.3868 72.6867 15.3703 72.7578 15.6074C73.3531 17.5921 76.5795 16.5074 77.5947 15.4922C77.9212 15.1656 78.1381 14.7959 78.3506 14.4092C78.9201 12.9621 78.7417 11.7442 78.5703 10.2451C74.703 10.3681 71.2507 11.2301 67.5215 12L56.3975 14.2715C52.6679 15.0349 48.8706 15.6236 45.1348 16.3242C40.4275 17.1946 35.7615 18.3073 30.9756 18.6562C30.6761 18.6969 30.3689 18.7269 30.0703 18.7715C25.9849 19.3807 21.9267 19.6839 17.8008 19.8955L11.2998 20.2119C10.4992 20.2488 8.41632 20.5595 7.91797 19.9687L7.98242 19.8769C8.91198 19.3142 18.5202 18.5917 20.4043 18.2441C27.5078 16.8882 35.0563 15.2785 41.6094 12.124C49.442 8.35344 55.9263 3.82885 64.8877 2.85058ZM72.4834 4.50488C70.9041 3.83977 67.1537 3.26021 65.4805 3.61816C59.6986 4.32102 55.6689 5.81558 50.4795 8.42089C47.8798 9.72612 45.3413 11.268 42.7002 12.4902C36.6254 15.2558 30.2369 17.2735 23.6758 18.5C27.461 18.568 31.7656 17.6596 35.6182 17.2178C37.8802 16.805 40.1321 16.4188 42.3965 16.0244C54.3331 13.9456 66.0856 11.1951 78.0547 9.29882C76.8591 6.69877 75.1024 5.6081 72.4834 4.50488Z" fill="#532C3D" style="fill:#532C3D;fill:color(display-p3 0.3255 0.1725 0.2392);fill-opacity:1;"/>
</svg>
