<svg width="131" height="23" viewBox="0 0 131 23" fill="none" xmlns="http://www.w3.org/2000/svg">
<path fill-rule="evenodd" clip-rule="evenodd" d="M66.1123 2.85058C60.95 2.32704 54.0308 3.92507 51.9668 9.30175C51.8422 9.28167 51.6961 9.25785 51.5742 9.24902C40.3489 8.43027 29.0009 8.0226 18.2246 11.9375C16.2611 12.6509 10.0114 15.1734 10 17.7197C10.3064 21.3192 16.7856 16.5108 18.1533 15.7998C28.8274 10.2512 39.6636 9.91894 51.4414 10.2256C51.0769 12.9591 51.4435 15.6466 54.2129 17.1289C55.4373 17.7843 56.8624 17.6086 58.1455 17.1777C58.247 17.0837 58.3455 16.9862 58.4395 16.8848C59.6632 15.5641 59.4372 12.9223 57.6387 13.0166C56.9612 13.3672 56.8225 13.8308 56.9482 14.5644C57.287 14.9535 57.6322 14.9855 58.1602 15.1758C58.2689 15.3868 58.3133 15.3703 58.2422 15.6074C57.6469 17.5921 54.4205 16.5074 53.4053 15.4922C53.0788 15.1656 52.8619 14.7959 52.6494 14.4092C52.0799 12.9621 52.2583 11.7442 52.4297 10.2451C56.297 10.3681 59.7493 11.2301 63.4785 12L74.6025 14.2715C78.3321 15.0349 82.1294 15.6236 85.8652 16.3242C90.5725 17.1946 95.2385 18.3073 100.024 18.6562C100.324 18.6969 100.631 18.7269 100.93 18.7715C105.015 19.3807 109.073 19.6839 113.199 19.8955L119.7 20.2119C120.501 20.2488 122.584 20.5595 123.082 19.9687L123.018 19.8769C122.088 19.3142 112.48 18.5917 110.596 18.2441C103.492 16.8882 95.9437 15.2785 89.3906 12.124C81.558 8.35344 75.0737 3.82885 66.1123 2.85058ZM58.5166 4.50488C60.0959 3.83977 63.8463 3.26021 65.5195 3.61816C71.3014 4.32102 75.3311 5.81558 80.5205 8.42089C83.1202 9.72612 85.6587 11.268 88.2998 12.4902C94.3746 15.2558 100.763 17.2735 107.324 18.5C103.539 18.568 99.2344 17.6596 95.3818 17.2178C93.1198 16.805 90.8679 16.4188 88.6035 16.0244C76.6669 13.9456 64.9144 11.1951 52.9453 9.29882C54.1409 6.69877 55.8976 5.6081 58.5166 4.50488Z" fill="#532C3D" style="fill:#532C3D;fill:color(display-p3 0.3255 0.1725 0.2392);fill-opacity:1;"/>
</svg>
