<svg width="277" height="77" viewBox="0 0 277 77" fill="none" xmlns="http://www.w3.org/2000/svg">
<path d="M4.85154 25.9449C6.80444 28.3876 10.6797 30.5251 10.8933 33.945C11.168 38.2198 5.15668 37.7618 2.47144 37.3648C1.61704 37.2427 1.03728 37.5786 0.732137 38.3725C-0.640997 41.7313 0.518538 45.7314 3.20378 48.1131C6.22467 50.7696 10.4661 51.4414 14.3719 51.2887C17.2403 51.1666 20.9325 50.4643 24.0449 48.907C22.4887 54.6781 27.615 59.3804 32.894 60.4186C36.281 61.0903 39.7902 60.9071 43.2077 60.7545C46.7779 60.6018 50.348 60.2354 53.8877 59.7468C57.5494 59.2583 61.1805 58.5865 64.7507 57.7315C66.3679 57.3651 67.9852 56.9376 69.5719 56.4185C68.9006 57.4567 68.3818 58.556 68.1682 59.8079C67.7716 62.1285 68.4734 64.5102 69.7855 66.4339C72.8064 70.892 78.1158 73.2737 83.2422 74.4035C88.8263 75.6554 94.5934 75.5333 100.269 75.1669C106.616 74.7699 112.932 74.3119 119.279 74.2814C132.889 74.2508 146.498 75.0447 160.077 75.4722C166.881 75.686 173.686 75.8997 180.521 76.0829C187.295 76.2661 268.586 76.5715 275.36 76.144C276.062 76.1134 276.306 74.9837 275.543 74.8615C268.403 73.8539 186.685 73.6096 179.484 73.2432C172.191 72.8768 164.928 72.5409 157.636 72.205C144.637 71.5943 131.607 70.8309 118.608 70.8615C112.597 70.8615 106.616 71.289 100.605 71.6554C95.1427 71.9913 89.5586 72.205 84.2187 71.0141C79.5805 69.976 72.959 67.5026 71.7384 62.2507C71.0976 59.5025 73.02 57.6399 74.6983 55.7773C76.224 54.0979 77.4445 52.3269 78.0853 50.1589C79.3364 45.884 78.2379 41.3344 77.2614 37.1206C76.7122 34.8305 76.0714 32.5709 75.5832 30.2503C75.4306 29.4869 75.3391 28.7541 75.278 27.9907C76.3155 28.8457 77.5056 29.548 78.5735 30.1281C83.5779 32.8762 89.3145 33.7923 94.9291 34.2808C101.703 34.861 108.508 35.0747 115.313 35.3496C143.965 36.5404 247.257 37.2427 275.879 35.3801C277.252 35.2885 277.283 33.2121 275.879 33.2121C272.461 33.2121 194.649 33.09 191.232 33.1205C177.866 33.1511 164.501 33.1511 151.136 32.9984C151.441 31.7159 151.594 30.2503 151.594 28.8457C152.326 27.5937 152.662 26.0975 152.631 24.6319C152.509 19.1967 147.535 15.3188 143.172 12.9676C132.889 7.47134 120.53 7.92936 109.271 8.7538C96.0276 9.70037 82.9066 11.8989 69.7855 13.9752C64.3845 14.8302 58.9835 15.6546 53.552 16.3569C54.0707 15.1661 55.0472 14.3722 56.2372 13.4561C57.4273 12.5401 58.4343 11.563 58.7394 10.0363C58.7394 9.94465 58.7394 9.85305 58.7394 9.76144C59.1971 9.08968 59.2581 8.1431 58.5258 7.50187C54.5895 4.11252 49.9819 1.82241 44.886 0.72316C36.5862 -1.07839 25.1739 0.234604 19.6814 7.53241C16.9961 11.105 16.1417 16.4486 10.7408 16.7844C6.13313 17.0592 3.08172 12.8149 3.63097 8.50952C3.87509 6.52476 0.488024 6.09727 0.152369 8.0515C-0.2138 10.25 0.0913411 12.479 0.945735 14.4333C1.18985 18.5554 2.25784 22.6776 4.85154 25.9143V25.9449ZM149.122 31.38C148.878 31.9297 148.603 32.4488 148.359 33.0289C134.964 32.8457 121.568 32.4793 108.172 31.8075C102.1 31.5022 95.9055 31.4106 89.8943 30.4029C87.087 29.9144 84.2797 29.2121 81.686 28.0212C80.3739 27.4105 75.3696 25.1815 76.1629 23.2273C76.9258 21.3341 80.8926 21.4868 82.4488 21.4562C85.4392 21.3952 88.3991 21.6395 91.359 22.0669C97.0651 22.8914 102.649 24.4181 108.172 26.0059C119.31 29.2426 130.661 33.0595 142.409 32.693C144.667 32.632 147.139 32.5404 149.122 31.38ZM107.867 12.6317C119.584 11.7157 133.194 10.7691 143.477 17.5478C145.705 19.0135 148.207 21.0288 148.817 23.7769C149.519 26.922 147.413 28.6624 144.514 28.9067C138.503 29.4258 132.431 28.5708 126.542 27.2273C114.702 24.5708 103.351 19.9295 91.2979 18.3417C88.3686 17.9448 85.4392 17.731 82.4794 17.7921C79.9772 17.8532 77.3225 17.9753 75.1255 19.3494C73.1726 20.6013 72.1351 22.8303 72.9895 25.0899C72.9895 25.1815 73.0505 25.2426 73.081 25.3342C71.6774 29.4869 72.8674 34.5862 73.8134 38.6168C74.3931 41.1512 75.0034 43.7161 74.9729 46.3115C74.9119 49.1207 73.8439 51.2887 72.0435 53.3651C69.2362 53.6704 66.4289 54.3116 63.6522 54.8307C60.021 55.5025 56.3593 55.991 52.6976 56.388C49.4326 56.7544 46.1676 56.9682 42.9026 57.0903C39.9427 57.2124 36.7998 57.4262 33.8704 56.846C31.2767 56.3269 28.5915 54.9529 27.6761 52.2658C26.7912 49.6398 28.8356 47.2581 30.0562 45.1207C32.9855 39.9603 32.0091 34.3419 30.6359 28.8457C29.9951 26.2502 29.4459 23.7158 29.1407 21.0593C29.0797 20.5097 29.0492 19.96 29.0187 19.4104C29.2933 19.6547 29.5679 19.8684 29.9036 20.0822C34.4197 22.9219 40.9192 21.4868 45.8319 20.9677C52.6976 20.2654 59.5328 19.2883 66.3374 18.2501C80.1603 16.1432 93.9221 13.7004 107.867 12.6012V12.6317ZM52.4535 12.6622C51.0193 13.731 50.0734 15.1966 49.7072 16.9066C49.6462 16.9066 49.5852 16.9066 49.5547 16.9066C46.2591 17.3035 42.9941 17.6089 39.6986 17.8837C37.4101 18.0669 34.9994 18.2806 32.8024 17.4562C31.1547 16.8455 29.8121 15.1966 31.3378 13.6699C32.7414 12.2653 35.213 11.8378 37.0744 11.6851C43.2382 11.166 49.4631 11.0744 55.627 10.8302C54.559 11.4409 53.43 11.9599 52.4535 12.6928V12.6622ZM6.77392 19.96C11.0154 21.5173 16.0197 19.96 18.7354 16.418C20.2917 14.4027 21.0545 11.8989 22.5497 9.85305C24.0754 7.77669 26.425 6.43316 28.7746 5.51711C36.2505 2.58578 44.8555 3.37968 51.7517 7.31866C50.0734 7.37973 48.4256 7.47134 46.7474 7.53241C43.3908 7.68508 39.9732 7.68508 36.6167 8.02096C34.4197 8.23471 32.1006 8.7538 30.1782 9.91412C28.0728 11.2271 26.9742 13.3951 27.0353 15.502C26.2114 17.0287 25.7842 18.7997 25.6621 20.5402C25.3875 23.899 26.425 27.2578 27.1878 30.4945C27.9812 33.7617 28.8051 37.2732 27.9507 40.6015C27.615 41.9756 26.9132 43.197 26.1809 44.4184C25.3875 45.0901 24.5026 45.6703 23.5262 46.1283C21.1461 47.2886 18.4303 47.9604 15.7756 48.1436C12.7547 48.3574 9.33711 48.1742 6.65187 46.6779C4.51588 45.4871 2.47144 42.8916 2.99018 40.3573C6.34673 40.9069 9.94739 41.029 12.4801 38.2809C14.9822 35.5633 14.0668 31.6854 12.0223 28.9983C10.7713 27.38 9.15402 26.1586 7.78089 24.6624C6.46878 23.2273 5.49233 21.5173 4.85154 19.6852C4.76 19.4104 4.66845 19.1356 4.57691 18.8303C5.24822 19.2883 5.95004 19.6547 6.74341 19.96H6.77392Z" fill="#532C3D" style="fill:#532C3D;fill:color(display-p3 0.3255 0.1725 0.2392);fill-opacity:1;"/>
</svg>
