<svg width="43" height="3" viewBox="0 0 43 3" fill="none" xmlns="http://www.w3.org/2000/svg">
<path d="M10.252 2.13005C13.9747 2.31326 17.6975 2.40486 21.4202 2.37433C25.1429 2.34379 28.8656 2.19112 32.5883 1.91631C34.4497 1.79417 36.3111 1.6415 38.1724 1.42775C39.5761 1.27508 41.1018 1.18347 42.3528 0.481175V0.420107C40.7966 -0.0684484 39.0573 0.236898 37.4706 0.359037C35.6092 0.481176 33.7479 0.603316 31.8865 0.694921C28.4079 0.847594 24.8988 0.939198 21.4202 0.939198C17.9416 0.939198 14.4325 0.847594 10.9539 0.664385C9.09249 0.572781 7.23114 0.450643 5.36978 0.328504C3.75254 0.206365 1.95221 -0.221123 0.365476 0.145294C-0.0312065 0.236899 -0.153266 0.908664 0.243417 1.09187C1.61655 1.7331 3.20328 1.67203 4.66796 1.79417C6.52932 1.94684 8.39067 2.06898 10.252 2.16059V2.13005Z" fill="#532C3D" style="fill:#532C3D;fill:color(display-p3 0.3255 0.1725 0.2392);fill-opacity:1;"/>
</svg>
