<svg width="32" height="7" viewBox="0 0 32 7" fill="none" xmlns="http://www.w3.org/2000/svg">
<path d="M0.320398 5.32861C-0.106799 5.48128 -0.106799 6.06144 0.320398 6.21412C1.60199 6.67214 3.09718 6.4584 4.4398 6.39733C5.78242 6.33626 7.09452 6.27519 8.43714 6.15305C11.1529 5.90877 13.8381 5.54236 16.5234 5.0538C19.3612 4.53471 22.1685 3.86294 24.9453 3.06904C26.2269 2.70262 27.4779 2.30567 28.7595 1.84765C29.858 1.4507 31.0786 1.20642 31.8414 0.259843C31.9025 0.198774 31.9025 0.0766359 31.7804 0.0461012C30.6209 -0.167642 29.5834 0.412518 28.4544 0.7484C27.1728 1.14535 25.9217 1.5423 24.6401 1.90872C22.0769 2.64155 19.4832 3.22171 16.859 3.71027C13.9602 4.22936 11.0614 4.59578 8.132 4.80952C6.78938 4.90112 5.47728 4.99273 4.13466 5.02326C2.88358 5.0538 1.54096 4.87059 0.350913 5.29808L0.320398 5.32861Z" fill="#532C3D" style="fill:#532C3D;fill:color(display-p3 0.3255 0.1725 0.2392);fill-opacity:1;"/>
</svg>
