<svg width="177" height="10" viewBox="0 0 177 10" fill="none" xmlns="http://www.w3.org/2000/svg">
<path d="M112.953 1.89167C130.727 1.55724 146.148 1.63345 157.361 2.05275C162.968 2.26242 167.52 2.55769 170.788 2.92973C172.422 3.1158 173.732 3.3204 174.69 3.54252C175.169 3.65358 175.557 3.76822 175.853 3.88555C176.151 4.00421 176.34 4.12043 176.437 4.22606L176.437 4.22703L176.444 4.23297C176.528 4.31382 176.592 4.38571 176.637 4.44997C176.681 4.51497 176.699 4.56365 176.702 4.59817C176.705 4.62712 176.699 4.65428 176.674 4.68575C176.645 4.72142 176.59 4.76528 176.49 4.81164C176.29 4.90475 175.952 4.98991 175.43 5.06452C174.912 5.13865 174.222 5.20039 173.325 5.25204C169.73 5.45881 162.842 5.49649 150.369 5.4908C123.558 5.47764 89.189 6.31158 60.3555 6.85561C45.9381 7.12763 32.9049 7.32706 22.891 7.31186C17.884 7.30426 13.6328 7.24333 10.3417 7.1107C7.04617 6.97789 4.72651 6.77383 3.57191 6.48456C2.72989 6.27116 2.03131 6.07855 1.48645 5.9037C0.93842 5.72783 0.556458 5.57257 0.339204 5.43876C0.227689 5.37006 0.179317 5.31884 0.164098 5.28935C0.15848 5.27844 0.159736 5.2764 0.159324 5.27953C0.158924 5.28214 0.158807 5.27675 0.171227 5.26306C0.200588 5.23085 0.271037 5.18551 0.407032 5.13579C0.538751 5.08763 0.71705 5.04068 0.945738 4.99529C1.86397 4.81309 3.52529 4.67058 6.02523 4.54982C8.52227 4.42921 11.8481 4.33038 16.0899 4.23502L16.0909 4.23503C21.3951 4.09442 86.8597 2.49808 107.271 2.01986L112.953 1.89167Z" fill="#E5701C" stroke="url(#paint0_linear_11_721)" style="fill:#E5701C;fill:color(display-p3 0.8980 0.4392 0.1098);fill-opacity:1;" stroke-width="0.276451"/>
<defs>
<linearGradient id="paint0_linear_11_721" x1="39.2478" y1="4.39412" x2="38.9575" y2="-0.810609" gradientUnits="userSpaceOnUse">
<stop stop-color="#239D93" stop-opacity="0" style="stop-color:none;stop-opacity:0;"/>
<stop offset="1" stop-color="#239D93" style="stop-color:#239D93;stop-color:color(display-p3 0.1373 0.6157 0.5765);stop-opacity:1;"/>
</linearGradient>
</defs>
</svg>
